<?xml version="1.0" encoding="UTF-8"?>
<svg width="24px" height="24px" viewBox="0 0 24 24" version="1.1" xmlns="http://www.w3.org/2000/svg" xmlns:xlink="http://www.w3.org/1999/xlink">
    <title>icons/ic/AR-nav_explore</title>
    <defs>
        <filter color-interpolation-filters="auto" id="filter-1">
            <feColorMatrix in="SourceGraphic" type="matrix" values="0 0 0 0 0.000000 0 0 0 0 0.000000 0 0 0 0 0.000000 0 0 0 1.000000 0"></feColorMatrix>
        </filter>
    </defs>
    <g id="icons" stroke="none" stroke-width="1" fill="none" fill-rule="evenodd">
        <g id="icons/ic/AR-nav_explore">
            <g id="refresh_black_24dp">
                <polygon id="Path" points="0 0 24 0 24 24 0 24"></polygon>
            </g>
            <g filter="url(#filter-1)" id="explore_black_24dp-copy">
                <g>
                    <polygon id="Path" points="0 0 24 0 24 24 0 24"></polygon>
                    <path d="M12.4285714,11.3442857 C11.8272857,11.3442857 11.3442857,11.8272857 11.3442857,12.4285714 C11.3442857,13.0298571 11.8272857,13.5128571 12.4285714,13.5128571 C13.0298571,13.5128571 13.5128571,13.0298571 13.5128571,12.4285714 C13.5128571,11.8272857 13.0298571,11.3442857 12.4285714,11.3442857 Z M12.4285714,2.57142857 C6.98742857,2.57142857 2.57142857,6.98742857 2.57142857,12.4285714 C2.57142857,17.8697143 6.98742857,22.2857143 12.4285714,22.2857143 C17.8697143,22.2857143 22.2857143,17.8697143 22.2857143,12.4285714 C22.2857143,6.98742857 17.8697143,2.57142857 12.4285714,2.57142857 Z M14.5872857,14.5872857 L6.51428571,18.3428571 L10.2698571,10.2698571 L18.3428571,6.51428571 L14.5872857,14.5872857 Z" id="Shape" fill="#000000" fill-rule="nonzero"></path>
                </g>
            </g>
        </g>
    </g>
</svg>