<svg xmlns="http://www.w3.org/2000/svg" width="47.202" height="53.496" viewBox="0 0 47.202 53.496">
  <g id="Gruppe_359" data-name="Gruppe 359" transform="translate(-501.797 -428.752)">
    <rect id="Rechteck_11" data-name="Rechteck 11" width="40.35" height="6.183" transform="translate(508.649 452.342)" fill="#fff041"/>
    <path id="Pfad_4" data-name="Pfad 4" d="M3.072.017l31.45-.236a3.013,3.013,0,0,1,3.045,3.045,3.124,3.124,0,0,1-3.091,3.091l-31.45.236A3.013,3.013,0,0,1-.02,3.108,3.124,3.124,0,0,1,3.072.017Z" transform="translate(501.967 455.471) rotate(-45)" fill="#fff041"/>
    <path id="Pfad_5" data-name="Pfad 5" d="M3.065.019l31.45.236a3.125,3.125,0,0,1,3.091,3.091,3.013,3.013,0,0,1-3.045,3.045L3.111,6.156A3.125,3.125,0,0,1,.019,3.065,3.013,3.013,0,0,1,3.065.019Z" transform="translate(506.304 451.136) rotate(45)" fill="#fff041"/>
    <path id="Pfad_6" data-name="Pfad 6" d="M2.188,67.46.008,65.247l2.524-2.562Z" transform="translate(501.992 390.257)" fill="#fff041"/>
  </g>
</svg>
