<?xml version="1.0" encoding="utf-8"?>
<!-- Generator: Adobe Illustrator 25.4.1, SVG Export Plug-In . SVG Version: 6.00 Build 0)  -->
<svg version="1.1" id="Ebene_1" xmlns="http://www.w3.org/2000/svg" xmlns:xlink="http://www.w3.org/1999/xlink" x="0px" y="0px"
	 viewBox="0 0 24 24" style="enable-background:new 0 0 24 24;" xml:space="preserve">
<g id="Page-1">
	<g id="_x30_1-start-alternate" transform="translate(-350 -317)">
		<g id="icons-_x2F_-interaction-_x2F_-book-open" transform="translate(346.27 316)">
			<g id="train_black_24dp">
				<path id="Path" class="st0" d="M3,1h24v24H3V1z" style="fill:none;"/>
			</g>
			<g id="Group-5" transform="translate(4 2)">
				<path id="Fill-1" class="st1" style="fill-rule:evenodd;clip-rule:evenodd;fill:#FFFFFF;" d="M18.8,20.3H5.1c-0.8,0-1.5-0.7-1.5-1.5s0.7-1.5,1.5-1.5h13.7V20.3z M5.1,1.6h0.4v15.1H5.1
					c-0.6,0-1.1,0.2-1.5,0.6V3.1C3.6,2.3,4.3,1.7,5.1,1.6L5.1,1.6z M6.1,16.7h13.2V1.6H6.1C6.1,1.6,6.1,16.7,6.1,16.7z M20,1H5.1
					C3.9,1,3,2,3,3.1v15.7C3,20,3.9,21,5.1,21H20v-0.6h-0.6v-3H20V1z"/>
				<path id="Stroke-3" class="st2" style="fill:none;stroke:#FFFFFF;stroke-width:0.5;" d="M18.8,20.3H5.1c-0.8,0-1.5-0.7-1.5-1.5s0.7-1.5,1.5-1.5h13.7V20.3z M5.1,1.6h0.4v15.1H5.1
					c-0.6,0-1.1,0.2-1.5,0.6V3.1C3.6,2.3,4.3,1.7,5.1,1.6L5.1,1.6z M6.1,16.7h13.2V1.6H6.1C6.1,1.6,6.1,16.7,6.1,16.7z M20,1H5.1
					C3.9,1,3,2,3,3.1v15.6l0,0v0.1l0,0l0,0C3,20,3.9,21,5.1,21H20v-0.6h-0.6v-3H20v-0.7l0,0V1z"/>
			</g>
		</g>
	</g>
</g>
</svg>
