<?xml version="1.0" encoding="utf-8"?>
<!-- Generator: Adobe Illustrator 25.4.1, SVG Export Plug-In . SVG Version: 6.00 Build 0)  -->
<svg version="1.1" id="Ebene_1" xmlns="http://www.w3.org/2000/svg" xmlns:xlink="http://www.w3.org/1999/xlink" x="0px" y="0px"
	 viewBox="0 0 24 24" style="enable-background:new 0 0 24 24;" xml:space="preserve">
<g id="Page-1">
	<g id="_x30_1-start-alternate" transform="translate(-162 -319)">
		<g id="icons-_x2F_-interaction-_x2F_-book-open-copy" transform="translate(161.27 316)">
			<g id="train_black_24dp">
				<path id="Path" class="st0" style="fill:none;" d="M0.5,3h24v24h-24V3z"/>
			</g>
			<g id="Group-29" transform="translate(1 4)">
				<path id="Fill-1" class="st1" style="fill-rule:evenodd;clip-rule:evenodd;fill:#FFFFFF;" d="M20.6,18.3H2.4c-0.6,0-1.2-0.5-1.2-1.2v-0.8h20.6v0.8C21.8,17.8,21.3,18.3,20.6,18.3z M2.4,3.7
					h18.3c0.6,0,1.2,0.5,1.2,1.2v7.4H1.2V4.9C1.2,4.2,1.7,3.7,2.4,3.7z M1.2,15.6h20.6v-2.7H1.2V15.6z M20.6,3H2.4
					c-1,0-1.9,0.8-1.9,1.9v12.2c0,1,0.8,1.9,1.9,1.9h18.3c1,0,1.9-0.8,1.9-1.9V4.9C22.5,3.8,21.7,3,20.6,3z"/>
				<path id="Stroke-3" class="st2" style="fill:none;stroke:#FFFFFF;stroke-width:0.5;" d="M20.6,18.3H2.4c-0.6,0-1.2-0.5-1.2-1.2v-0.8h20.6v0.8C21.8,17.8,21.3,18.3,20.6,18.3z
					 M2.4,3.7h18.3c0.6,0,1.2,0.5,1.2,1.2v7.4H1.2V4.9C1.2,4.2,1.7,3.7,2.4,3.7z M1.2,15.6h20.6v-2.7H1.2V15.6z M20.6,3H2.4
					c-1,0-1.9,0.8-1.9,1.9v8.4l0,0V16l0,0v1.1c0,1,0.8,1.9,1.9,1.9h18.3c1,0,1.9-0.8,1.9-1.9V4.9C22.5,3.8,21.7,3,20.6,3z"/>
				<path id="Fill-5" class="st1" style="fill-rule:evenodd;clip-rule:evenodd;fill:#FFFFFF;" d="M2.9,7.9c0.2,0,0.3-0.2,0.3-0.3V5.2c0-0.2-0.2-0.3-0.3-0.3c-0.2,0-0.3,0.2-0.3,0.3v2.3
					C2.6,7.7,2.7,7.9,2.9,7.9"/>
				<path id="Stroke-7" class="st2" style="fill:none;stroke:#FFFFFF;stroke-width:0.5;" d="M2.9,7.9c0.2,0,0.3-0.2,0.3-0.3V5.2c0-0.2-0.2-0.3-0.3-0.3c-0.2,0-0.3,0.2-0.3,0.3v2.3
					C2.6,7.7,2.7,7.9,2.9,7.9z"/>
				<path id="Fill-9" class="st1" style="fill-rule:evenodd;clip-rule:evenodd;fill:#FFFFFF;" d="M4.4,7.9c0.2,0,0.3-0.2,0.3-0.3V5.2c0-0.2-0.2-0.3-0.3-0.3C4.2,4.9,4,5.1,4,5.2v2.3
					C4,7.7,4.2,7.9,4.4,7.9"/>
				<path id="Stroke-11" class="st2" style="fill:none;stroke:#FFFFFF;stroke-width:0.5;" d="M4.4,7.9c0.2,0,0.3-0.2,0.3-0.3V5.2c0-0.2-0.2-0.3-0.3-0.3C4.2,4.9,4,5.1,4,5.2v2.3
					C4,7.7,4.2,7.9,4.4,7.9L4.4,7.9z"/>
				<path id="Fill-13" class="st1" style="fill-rule:evenodd;clip-rule:evenodd;fill:#FFFFFF;" d="M5.9,7.9c0.2,0,0.3-0.2,0.3-0.3V5.2c0-0.2-0.2-0.3-0.3-0.3c-0.2,0-0.3,0.2-0.3,0.3v2.3
					C5.5,7.7,5.7,7.9,5.9,7.9"/>
				<path id="Stroke-15" class="st2" style="fill:none;stroke:#FFFFFF;stroke-width:0.5;" d="M5.9,7.9c0.2,0,0.3-0.2,0.3-0.3V5.2c0-0.2-0.2-0.3-0.3-0.3c-0.2,0-0.3,0.2-0.3,0.3v2.3
					C5.5,7.7,5.7,7.9,5.9,7.9z"/>
				<path id="Fill-17" class="st1" style="fill-rule:evenodd;clip-rule:evenodd;fill:#FFFFFF;" d="M8.2,7.9c0.2,0,0.3-0.2,0.3-0.3V5.2c0-0.2-0.1-0.3-0.3-0.3C8,4.9,7.8,5.1,7.8,5.2v2.3
					C7.8,7.7,8,7.9,8.2,7.9"/>
				<path id="Stroke-19" class="st2" style="fill:none;stroke:#FFFFFF;stroke-width:0.5;" d="M8.2,7.9c0.2,0,0.3-0.2,0.3-0.3V5.2c0-0.2-0.1-0.3-0.3-0.3C8,4.9,7.8,5.1,7.8,5.2v2.3
					C7.8,7.7,8,7.9,8.2,7.9z"/>
				<path id="Fill-21" class="st1" style="fill-rule:evenodd;clip-rule:evenodd;fill:#FFFFFF;" d="M9.7,7.9c0.2,0,0.4-0.2,0.4-0.3V5.2C10,5,9.9,4.9,9.7,4.9c-0.2,0-0.4,0.2-0.4,0.3v2.3
					C9.3,7.7,9.5,7.9,9.7,7.9"/>
				<path id="Stroke-23" class="st2" style="fill:none;stroke:#FFFFFF;stroke-width:0.5;" d="M9.7,7.9c0.2,0,0.4-0.2,0.4-0.3V5.2C10,5,9.9,4.9,9.7,4.9c-0.2,0-0.4,0.2-0.4,0.3v2.3
					C9.3,7.7,9.5,7.9,9.7,7.9z"/>
				<path id="Fill-25" class="st1" style="fill-rule:evenodd;clip-rule:evenodd;fill:#FFFFFF;" d="M12.1,7.9c0.2,0,0.3-0.2,0.3-0.3V5.2c0-0.2-0.1-0.3-0.3-0.3c-0.2,0-0.4,0.2-0.4,0.3v2.3
					C11.7,7.7,11.9,7.9,12.1,7.9"/>
				<path id="Stroke-27" class="st2" style="fill:none;stroke:#FFFFFF;stroke-width:0.5;" d="M12.1,7.9c0.2,0,0.3-0.2,0.3-0.3V5.2c0-0.2-0.1-0.3-0.3-0.3c-0.2,0-0.4,0.2-0.4,0.3v2.3
					C11.7,7.7,11.9,7.9,12.1,7.9z"/>
			</g>
		</g>
	</g>
</g>
</svg>
