<svg width="16" height="16" viewBox="0 0 16 16" fill="none" xmlns="http://www.w3.org/2000/svg">
<g id="icons/dessert" clip-path="url(#clip0_165_1123)">
<path id="Vector" d="M12.1344 3.28069L15.4375 0.803327L14.5502 0.137851L11.2205 2.63507C11.0908 1.16571 9.45582 0 7.46446 0C5.42988 0 3.76735 1.21679 3.70202 2.73098C2.74929 3.14463 2.05948 3.86234 1.86998 4.70588H0.5625V7.0588C0.5625 9.75453 3.3242 11.9751 6.83701 12.2137V13.1808C5.43851 13.2459 4.32721 14.1194 4.32721 15.1843V16H10.6017V15.1843C10.6017 14.1194 9.4904 13.2459 8.09191 13.1808V12.2137C11.6047 11.9751 14.3664 9.75453 14.3664 7.0588V4.70588H13.0589C12.9369 4.16285 12.6077 3.67191 12.1344 3.28069ZM11.7776 4.70711C10.7763 4.73829 9.97422 5.35906 9.97422 6.11765V6.58823C9.97422 6.84773 9.6928 7.0588 9.34684 7.0588C9.0008 7.0588 8.71936 6.84773 8.71936 6.58823V6.11765C8.71936 5.35906 7.9174 4.73829 6.91598 4.70711C7.19474 3.89553 8.17888 3.29412 9.34684 3.29412C10.5148 3.29412 11.4988 3.89553 11.7776 4.70711ZM7.46446 0.941173C8.64653 0.941173 9.63973 1.55746 9.90444 2.38394C9.72249 2.36361 9.53627 2.35294 9.34684 2.35294C8.66202 2.35294 8.01942 2.49085 7.46559 2.73145C6.89862 2.48486 6.25319 2.35294 5.58211 2.35294C5.39266 2.35294 5.20644 2.36361 5.02447 2.38394C5.28922 1.55746 6.28238 0.941173 7.46446 0.941173ZM5.58211 3.29412C5.87212 3.29412 6.15497 3.33101 6.42109 3.40179C6.02191 3.77123 5.74441 4.21744 5.63468 4.70588H3.15174C3.43104 3.8949 4.4148 3.29412 5.58211 3.29412ZM9.33698 15.0588H5.59189C5.67489 14.5296 6.27666 14.1177 7.00433 14.1177H7.9246C8.65222 14.1177 9.25396 14.5296 9.33698 15.0588ZM13.1116 7.0588C13.1116 9.39413 10.5782 11.2941 7.46446 11.2941C4.35068 11.2941 1.8174 9.39413 1.8174 7.0588V5.64706H6.83701C7.18299 5.64706 7.46446 5.85817 7.46446 6.11765V6.58823C7.46446 7.36667 8.30884 8 9.34684 8C10.3847 8 11.2292 7.36667 11.2292 6.58823V6.11765C11.2292 5.85817 11.5106 5.64706 11.8566 5.64706H13.1116V7.0588Z" fill="#2B78A7"/>
</g>
<defs>
<clipPath id="clip0_165_1123">
<rect width="16" height="16" fill="white"/>
</clipPath>
</defs>
</svg>
