<?xml version="1.0" encoding="UTF-8"?>
<svg width="24px" height="24px" viewBox="0 0 24 24" version="1.1" xmlns="http://www.w3.org/2000/svg" xmlns:xlink="http://www.w3.org/1999/xlink">
    <title>icons/ic/party</title>
    <defs>
        <filter color-interpolation-filters="auto" id="filter-1">
            <feColorMatrix in="SourceGraphic" type="matrix" values="0 0 0 0 0.000000 0 0 0 0 0.000000 0 0 0 0 0.000000 0 0 0 1.000000 0"></feColorMatrix>
        </filter>
    </defs>
    <g id="icons" stroke="none" stroke-width="1" fill="none" fill-rule="evenodd">
        <g id="celebration_black_24dp" filter="url(#filter-1)">
            <g>
                <rect id="Rectangle" x="0" y="0" width="24" height="24"></rect>
                <g id="Group" transform="translate(2.650749, 1.772500)" fill="#000000" fill-rule="nonzero">
                    <path d="M1.3392509,19.5175 L10.3792509,16.2875 C11.7592509,15.7975 12.1592509,14.0275 11.1192509,12.9875 L6.5892509,8.4575 C5.5492509,7.4175 3.7892509,7.8175 3.2892509,9.1975 L0.059250902,18.2375 C-0.220749098,19.0375 0.539250902,19.7975 1.3392509,19.5175 Z" id="Path"></path>
                    <path d="M12.4092509,10.2275 L17.4692509,5.1675 C17.9592509,4.6775 18.7492509,4.6775 19.2392509,5.1675 L19.2992509,5.2275 C19.5892509,5.5175 20.0692509,5.5175 20.3592509,5.2275 L20.3592509,5.2275 C20.6492509,4.9375 20.6492509,4.4575 20.3592509,4.1675 L20.2992509,4.1075 C19.2292509,3.0375 17.4792509,3.0375 16.4092509,4.1075 L11.3492509,9.1675 C11.0592509,9.4575 11.0592509,9.9375 11.3492509,10.2275 L11.3492509,10.2275 C11.6392509,10.5175 12.1192509,10.5175 12.4092509,10.2275 Z" id="Path"></path>
                    <path d="M7.4092509,5.1075 L7.3492509,5.1675 C7.0592509,5.4575 7.0592509,5.9375 7.3492509,6.2275 L7.3492509,6.2275 C7.6392509,6.5175 8.1192509,6.5175 8.4092509,6.2275 L8.4692509,6.1675 C9.5392509,5.0975 9.5392509,3.3475 8.4692509,2.2775 L8.4192509,2.2275 C8.1192509,1.9275 7.6392509,1.9275 7.3492509,2.2275 L7.3492509,2.2275 C7.0592509,2.5175 7.0592509,2.9975 7.3492509,3.2875 L7.4092509,3.3475 C7.8892509,3.8275 7.8892509,4.6275 7.4092509,5.1075 Z" id="Path"></path>
                    <path d="M14.4092509,10.1075 L13.3492509,11.1675 C13.0592509,11.4575 13.0592509,11.9375 13.3492509,12.2275 L13.3492509,12.2275 C13.6392509,12.5175 14.1192509,12.5175 14.4092509,12.2275 L15.4692509,11.1675 C15.9592509,10.6775 16.7492509,10.6775 17.2392509,11.1675 L18.3192509,12.2475 C18.6092509,12.5375 19.0892509,12.5375 19.3792509,12.2475 L19.3792509,12.2475 C19.6692509,11.9575 19.6692509,11.4775 19.3792509,11.1875 L18.2992509,10.1075 C17.2192509,9.0375 15.4792509,9.0375 14.4092509,10.1075 Z" id="Path"></path>
                    <path d="M12.4092509,4.1075 L9.3492509,7.1675 C9.0592509,7.4575 9.0592509,7.9375 9.3492509,8.2275 L9.3492509,8.2275 C9.6392509,8.5175 10.1192509,8.5175 10.4092509,8.2275 L13.4692509,5.1675 C14.5392509,4.0975 14.5392509,2.3475 13.4692509,1.2775 L12.4092509,0.2175 C12.1192509,-0.0725 11.6392509,-0.0725 11.3492509,0.2175 L11.3492509,0.2175 C11.0592509,0.5075 11.0592509,0.9875 11.3492509,1.2775 L12.4092509,2.3375 C12.8892509,2.8275 12.8892509,3.6275 12.4092509,4.1075 Z" id="Path"></path>
                </g>
            </g>
        </g>
    </g>
</svg>