<svg width="24" height="16" viewBox="0 0 24 16" fill="none" xmlns="http://www.w3.org/2000/svg">
<mask id="mask0_3916_228" style="mask-type:luminance" maskUnits="userSpaceOnUse" x="0" y="0" width="24" height="16">
<rect width="24" height="16" fill="white"/>
</mask>
<g mask="url(#mask0_3916_228)">
<path fill-rule="evenodd" clip-rule="evenodd" d="M0 0V16H24V0H0Z" fill="#2E42A5"/>
<mask id="mask1_3916_228" style="mask-type:luminance" maskUnits="userSpaceOnUse" x="0" y="0" width="24" height="16">
<path fill-rule="evenodd" clip-rule="evenodd" d="M0 0V16H24V0H0Z" fill="white"/>
</mask>
<g mask="url(#mask1_3916_228)">
<mask id="mask2_3916_228" style="mask-type:luminance" maskUnits="userSpaceOnUse" x="0" y="0" width="24" height="16">
<rect width="24" height="16" fill="white"/>
</mask>
<g mask="url(#mask2_3916_228)">
<path d="M-2.67236 14.8569L2.6089 16.8423L24.1198 2.15854L26.9056 -0.791784L21.258 -1.45535L12.4842 4.87229L5.42223 9.13565L-2.67236 14.8569Z" fill="white"/>
<path d="M-1.94946 16.248L0.741099 17.4001L25.9051 -1.06581H22.1273L-1.94946 16.248Z" fill="#F50100"/>
<path d="M26.6724 14.8569L21.3911 16.8423L-0.119831 2.15854L-2.90558 -0.791784L2.74198 -1.45535L11.5158 4.87229L18.5778 9.13565L26.6724 14.8569Z" fill="white"/>
<path d="M26.4922 15.8552L23.8016 17.0073L13.0865 9.10109L9.90973 8.21774L-3.1736 -0.781721H0.604261L13.6802 8.00413L17.1535 9.06336L26.4922 15.8552Z" fill="#F50100"/>
<mask id="path-9-inside-1_3916_228" fill="white">
<path fill-rule="evenodd" clip-rule="evenodd" d="M14.8334 -1.33325H9.16677V5.33343H-1.47925V10.6668H9.16677V17.3334H14.8334V10.6668H25.5208V5.33343H14.8334V-1.33325Z"/>
</mask>
<path fill-rule="evenodd" clip-rule="evenodd" d="M14.8334 -1.33325H9.16677V5.33343H-1.47925V10.6668H9.16677V17.3334H14.8334V10.6668H25.5208V5.33343H14.8334V-1.33325Z" fill="#F50100"/>
<path d="M9.16677 -1.33325V-2.58325H7.91677V-1.33325H9.16677ZM14.8334 -1.33325H16.0834V-2.58325H14.8334V-1.33325ZM9.16677 5.33343V6.58343H10.4168V5.33343H9.16677ZM-1.47925 5.33343V4.08343H-2.72925V5.33343H-1.47925ZM-1.47925 10.6668H-2.72925V11.9168H-1.47925V10.6668ZM9.16677 10.6668H10.4168V9.41676H9.16677V10.6668ZM9.16677 17.3334H7.91677V18.5834H9.16677V17.3334ZM14.8334 17.3334V18.5834H16.0834V17.3334H14.8334ZM14.8334 10.6668V9.41676H13.5834V10.6668H14.8334ZM25.5208 10.6668V11.9168H26.7708V10.6668H25.5208ZM25.5208 5.33343H26.7708V4.08343H25.5208V5.33343ZM14.8334 5.33343H13.5834V6.58343H14.8334V5.33343ZM9.16677 -0.083252H14.8334V-2.58325H9.16677V-0.083252ZM10.4168 5.33343V-1.33325H7.91677V5.33343H10.4168ZM-1.47925 6.58343H9.16677V4.08343H-1.47925V6.58343ZM-0.229248 10.6668V5.33343H-2.72925V10.6668H-0.229248ZM9.16677 9.41676H-1.47925V11.9168H9.16677V9.41676ZM10.4168 17.3334V10.6668H7.91677V17.3334H10.4168ZM14.8334 16.0834H9.16677V18.5834H14.8334V16.0834ZM13.5834 10.6668V17.3334H16.0834V10.6668H13.5834ZM25.5208 9.41676H14.8334V11.9168H25.5208V9.41676ZM24.2708 5.33343V10.6668H26.7708V5.33343H24.2708ZM14.8334 6.58343H25.5208V4.08343H14.8334V6.58343ZM13.5834 -1.33325V5.33343H16.0834V-1.33325H13.5834Z" fill="white" mask="url(#path-9-inside-1_3916_228)"/>
</g>
</g>
</g>
</svg>
