<?xml version="1.0" encoding="UTF-8"?>
<svg width="24px" height="24px" viewBox="0 0 24 24" version="1.1" xmlns="http://www.w3.org/2000/svg" xmlns:xlink="http://www.w3.org/1999/xlink">
    <title>icons/ic/freizeit</title>
    <defs>
        <filter color-interpolation-filters="auto" id="filter-1">
            <feColorMatrix in="SourceGraphic" type="matrix" values="0 0 0 0 0.000000 0 0 0 0 0.000000 0 0 0 0 0.000000 0 0 0 1.000000 0"></feColorMatrix>
        </filter>
        <polygon id="path-2" points="0 0 22 0 22 22 0 22"></polygon>
    </defs>
    <g id="icons" stroke="none" stroke-width="1" fill="none" fill-rule="evenodd">
        <g id="Group">
            <g filter="url(#filter-1)" id="Group-3">
                <g transform="translate(1.000000, 1.000000)">
                    <mask id="mask-3" fill="white">
                        <use xlink:href="#path-2"></use>
                    </mask>
                    <g id="Clip-2"></g>
                    <path d="M19.6716279,8.27387821 C19.4931804,8.36138031 19.3660672,8.52652512 19.324511,8.71878326 C19.2817325,8.91350625 19.3306222,9.1168562 19.4528464,9.27090919 C19.6557387,9.52232368 19.7632961,9.82549997 19.7632961,10.1471626 C19.7632961,10.9161952 19.1423968,11.5410341 18.3809397,11.5410341 C17.5657039,11.5410341 16.8225804,10.8767576 16.8225804,10.1471626 C16.8225804,10.1385357 16.8176914,10.1311411 16.8176914,10.1225141 L16.8176914,7.89182679 L18.4750524,6.54601983 C18.7525014,6.31925382 18.7965022,5.90885665 18.5728318,5.62786399 C18.3467169,5.34687132 17.9384879,5.30250406 17.662261,5.52927007 L16.8176914,6.21696264 L16.8176914,4.89457173 C16.8176914,4.53470394 16.5280199,4.24261946 16.1711251,4.24261946 C15.813008,4.24261946 15.5233365,4.53470394 15.5233365,4.89457173 L15.5233365,10.1705787 C15.5098918,10.9161952 14.8547698,11.5410341 14.074979,11.5410341 C13.7168619,11.5410341 13.3819675,11.4042351 13.1289633,11.1651448 C13.1472969,11.1232424 13.1546304,11.0764103 13.1705195,11.0332754 C13.2035201,10.9408437 13.2316316,10.8496443 13.2548542,10.7535152 C13.2902993,10.6093216 13.3086329,10.4601983 13.3196331,10.3098426 C13.3245221,10.2457565 13.3465224,10.1841353 13.3465224,10.1200493 C13.3465224,9.74415999 13.2707434,9.37689765 13.1240743,9.03798107 C13.8537531,8.44148787 14.291316,7.53812111 14.291316,6.57313316 C14.291316,6.51644166 14.2717601,6.46467985 14.2693156,6.40922077 C14.2607599,6.24037869 14.2387595,6.07523388 14.2033145,5.91255392 C14.1849809,5.82505182 14.1678695,5.73878214 14.1422024,5.65374489 C14.0835347,5.46025433 14.0065334,5.27539073 13.913643,5.09792169 C13.873309,5.02027898 13.828086,4.94879839 13.7816408,4.87485295 C13.752307,4.83171811 13.7315289,4.78365358 13.7009728,4.74051874 C13.7413068,4.74298359 13.7816408,4.74791328 13.8207526,4.75161055 C14.044423,4.78242115 14.2693156,4.68629208 14.4098735,4.50512576 C14.5492092,4.32519187 14.5846542,4.0848692 14.5027639,3.87042743 C14.4196514,3.65228839 14.3780952,3.42552238 14.3780952,3.19629152 C14.3780952,2.16968237 15.2092202,1.33409893 16.2285705,1.33409893 C17.2479208,1.33409893 18.075379,2.16968237 18.075379,3.19629152 C18.075379,3.42798723 18.0338228,3.65475324 17.9531548,3.86796258 C17.8700423,4.08117192 17.9042651,4.32272702 18.0436007,4.50389334 C18.1817141,4.68505966 18.4102735,4.78365358 18.6314994,4.75284298 C19.7131841,4.62836816 20.7068673,5.49845947 20.7068673,6.60147891 C20.7068673,7.31751723 20.3084163,7.95837768 19.6716279,8.27387821 L19.6716279,8.27387821 Z M10.6710334,11.5126884 C9.86802002,11.5126884 9.16645277,10.8619685 9.16645277,10.1200493 C9.16645277,10.1175844 9.16523053,10.1151196 9.16523053,10.1126548 L9.16523053,7.8511568 L10.6661444,6.70746737 C10.950927,6.48932833 11.0071501,6.08016358 10.7908132,5.79177637 C10.5769207,5.50462159 10.1723584,5.44793009 9.88513142,5.66606913 L9.16523053,6.21449779 L9.16523053,4.91059324 C9.16523053,4.54949303 8.87555904,4.25740855 8.51744196,4.25740855 C8.16054712,4.25740855 7.87087563,4.54949303 7.87087563,4.91059324 L7.87087563,7.86841073 L7.23286499,7.37174388 C6.95297144,7.15360484 6.54474241,7.20413422 6.32473875,7.49005658 C6.10595732,7.77474651 6.15851375,8.18514369 6.44207403,8.40451515 L7.87087563,9.51739398 L7.87087563,10.124979 C7.8672089,10.8644334 7.16686389,11.5126884 6.36507275,11.5126884 C5.60361562,11.5126884 4.98271638,10.8878494 4.98271638,10.1200493 C4.98271638,9.7959218 5.08905148,9.4927455 5.29072151,9.24256344 C5.41539026,9.08851045 5.46183548,8.88639292 5.42027923,8.69166993 C5.37872298,8.49817937 5.25038751,8.33426699 5.07438457,8.24676489 C4.4351517,7.93003193 4.0391451,7.28793905 4.0391451,6.57313316 C4.0391451,5.46764887 5.05849542,4.59755756 6.11329078,4.72449723 C6.33696117,4.75161055 6.56063157,4.65671391 6.70118946,4.47678001 C6.84052512,4.29561369 6.87474791,4.0540586 6.79285766,3.83961683 C6.71096741,3.62640748 6.66818891,3.39964148 6.66818891,3.16794577 C6.66818891,2.1401042 7.49931388,1.30452076 8.51988644,1.30452076 C9.53801452,1.30452076 10.3679172,2.1401042 10.3679172,3.16794577 C10.3679172,3.39717663 10.326361,3.62517506 10.2420263,3.84208168 C10.1613582,4.05652344 10.1968033,4.29684612 10.3349167,4.47801244 C10.4766968,4.65671391 10.6918115,4.76146995 10.9240376,4.72449723 C11.3004883,4.67643269 11.7209398,4.75777267 12.0631677,4.95742535 C12.0656122,4.95865778 12.0656122,4.96112263 12.0680567,4.96112263 C12.6351773,5.29510952 12.9884054,5.91132149 12.9884054,6.57313316 C12.9884054,6.94779004 12.8674033,7.30149571 12.6669556,7.60343958 C12.4946194,7.85362165 12.2636155,8.07669038 11.9629438,8.24430004 C11.9592771,8.24676489 11.9531659,8.24676489 11.9494992,8.24799731 C11.7734962,8.33673184 11.646383,8.50187665 11.6048267,8.69659963 C11.5644927,8.89009019 11.6146047,9.09344014 11.7392734,9.24749314 C11.772274,9.2869307 11.8016078,9.33006554 11.8297194,9.3744328 C11.8309416,9.3744328 11.8297194,9.37566523 11.8309416,9.37566523 C11.9702773,9.59750154 12.0448341,9.85507815 12.0448341,10.1200493 C12.0448341,10.392415 11.9666106,10.6561537 11.8187192,10.8816873 C11.8162747,10.8853846 11.817497,10.8915467 11.8138302,10.895244 C11.5583815,11.2822251 11.1330411,11.5126884 10.6710334,11.5126884 L10.6710334,11.5126884 Z M2.3060051,18.066719 L11.3127108,18.066719 L11.3127108,15.4663044 L2.3060051,15.4663044 L2.3060051,18.066719 Z M22,6.60147891 C22,5.02520867 20.8547587,3.71514201 19.3587338,3.47235449 C19.3660672,3.38115512 19.3709562,3.28995574 19.3709562,3.19629152 C19.3709562,1.44871436 17.9604882,0.0289619629 16.226126,0.0289619629 C14.4942082,0.0289619629 13.0837403,1.44871436 13.0837403,3.19629152 C13.0837403,3.28995574 13.087407,3.38238754 13.0959627,3.47358691 C12.8564032,3.51302448 12.6266216,3.58943477 12.4041734,3.68186656 C12.1597249,3.57464568 11.9091652,3.48714358 11.6488275,3.44524116 C11.6573832,3.35280937 11.6610499,3.26160999 11.6610499,3.16794577 C11.6610499,1.42160103 10.250582,-0.000616211977 8.51621971,-0.000616211977 C6.78430196,-0.000616211977 5.37505625,1.42160103 5.37505625,3.16794577 C5.37505625,3.26160999 5.37872298,3.35280937 5.38605643,3.44524116 C3.89125374,3.68679626 2.74479019,4.99809534 2.74479019,6.57313316 C2.74479019,7.55044535 3.17990855,8.44518514 3.91203187,9.03921349 C3.76536276,9.37813008 3.68958372,9.74539241 3.68958372,10.1200493 C3.68958372,11.607585 4.88982594,12.8178253 6.36507275,12.8178253 C6.9175264,12.8178253 7.43086829,12.6403563 7.87087563,12.3618285 L7.87087563,14.1623999 L1.65943877,14.1623999 C1.30254393,14.1623999 1.01165019,14.4544843 1.01165019,14.8143521 L1.01165019,18.066719 L0.647421901,18.066719 C0.289304822,18.066719 -0.000366672778,18.3588034 -0.000366672778,18.7199036 C-0.000366672778,19.0810039 0.289304822,19.3718559 0.647421901,19.3718559 L1.84155291,19.3718559 L1.84155291,21.2685564 L1.86722001,21.2685564 C1.86722001,21.6284242 2.15566926,21.9205087 2.51378634,21.9205087 C2.87190342,21.9205087 3.16035267,21.6284242 3.16035267,21.2685564 L3.16035267,19.3718559 L7.90265393,19.3718559 L7.90265393,21.2685564 C7.90265393,21.6284242 8.19110319,21.9205087 8.54922026,21.9205087 C8.90733734,21.9205087 9.19700884,21.6284242 9.19700884,21.2685564 L9.19700884,19.3718559 L10.4534742,19.3718559 L10.4534742,21.2685564 C10.4534742,21.6284242 10.7419235,21.9205087 11.1000406,21.9205087 C11.4569354,21.9205087 11.7478291,21.6284242 11.7478291,21.2685564 L11.7478291,19.3718559 L12.8551809,19.3718559 C13.213298,19.3718559 13.5017473,19.0810039 13.5017473,18.7199036 C13.5017473,18.3588034 13.213298,18.066719 12.8551809,18.066719 L12.6070657,18.066719 L12.6070657,14.8143521 C12.6070657,14.4544843 12.3161719,14.1623999 11.9592771,14.1623999 L9.16523053,14.1623999 L9.16523053,12.360596 C9.60523787,12.6403563 10.1173575,12.8178253 10.6710334,12.8178253 C11.2980439,12.8178253 11.8847203,12.5873621 12.3552837,12.1991485 C12.8307361,12.6058484 13.4308572,12.8461711 14.074979,12.8461711 C14.6042101,12.8461711 15.0979961,12.6760966 15.5233365,12.4074282 L15.5233365,21.3474315 C15.5233365,21.7085317 15.813008,22.0006162 16.1711251,22.0006162 C16.5280199,22.0006162 16.8176914,21.7085317 16.8176914,21.3474315 L16.8176914,12.3593636 C17.2748101,12.6576102 17.8113746,12.8461711 18.3809397,12.8461711 C19.8561865,12.8461711 21.057651,11.6359308 21.057651,10.1471626 C21.057651,9.77497059 20.9782052,9.40647583 20.8327583,9.06755924 C21.5661039,8.47476332 22,7.5787911 22,6.60147891 L22,6.60147891 Z" id="Fill-1" fill="#000000" mask="url(#mask-3)"></path>
                </g>
            </g>
            <polygon id="Path" points="0 0 24 0 24 24 0 24"></polygon>
        </g>
    </g>
</svg>