<?xml version="1.0" encoding="UTF-8"?>
<svg width="24px" height="24px" viewBox="0 0 24 24" version="1.1" xmlns="http://www.w3.org/2000/svg" xmlns:xlink="http://www.w3.org/1999/xlink">
    <title>icons/ic/info</title>
    <g id="icons" stroke="none" stroke-width="1" fill="none" fill-rule="evenodd">
        <g id="INFO-ICON">
            <g id="Group" transform="translate(2.000000, 2.000000)" fill="#000000">
                <path d="M13.2840976,15.2100488 L10.9962927,15.2090732 L10.9962927,7.40517073 L7.42556098,7.412 C7.07043902,7.412 6.78165854,7.70078049 6.78165854,8.05590244 C6.78165854,8.40614634 7.06360976,8.69297561 7.44702439,8.69297561 L7.46068293,8.69297561 L9.7084878,8.69297561 L9.7084878,15.2090732 L7.42653659,15.2090732 L7.42360976,15.2090732 C7.25190244,15.2090732 7.09092683,15.2754146 6.96995122,15.3963902 C6.848,15.5163902 6.78165854,15.6783415 6.78165854,15.8500488 C6.78165854,16.2051707 7.07043902,16.4939512 7.42556098,16.496878 L13.2782439,16.496878 L13.283122,16.496878 C13.4538537,16.496878 13.6138537,16.4315122 13.7348293,16.3115122 C13.8558049,16.1905366 13.923122,16.029561 13.923122,15.856878 C13.923122,15.5017561 13.6362927,15.2110244 13.2840976,15.2100488" id="Fill-1"></path>
                <g id="Group-5">
                    <path d="M18.7804878,10 C18.7804878,14.8409756 14.8419512,18.7804878 10,18.7804878 C5.15804878,18.7804878 1.2195122,14.8409756 1.2195122,10 C1.2195122,5.15902439 5.15804878,1.2195122 10,1.2195122 C14.8419512,1.2195122 18.7804878,5.15902439 18.7804878,10 M10,0 C4.48585366,0 0,4.48585366 0,10 C0,15.5141463 4.48585366,20 10,20 C15.5141463,20 20,15.5141463 20,10 C20,4.48585366 15.5141463,0 10,0" id="Fill-3"></path>
                </g>
                <path d="M9.8142439,5.36868293 C9.35668293,5.36868293 8.98497561,4.99697561 8.98497561,4.53941463 C8.98497561,4.08185366 9.35668293,3.71014634 9.8142439,3.71014634 C10.2718049,3.71014634 10.6444878,4.08185366 10.6444878,4.53941463 C10.6444878,4.99697561 10.2718049,5.36868293 9.8142439,5.36868293 M9.8142439,2.2955122 C8.57619512,2.2955122 7.57034146,3.30234146 7.57034146,4.53941463 C7.57034146,5.7764878 8.57619512,6.78331707 9.8142439,6.78331707 C11.0522927,6.78331707 12.059122,5.7764878 12.059122,4.53941463 C12.059122,3.30234146 11.0522927,2.2955122 9.8142439,2.2955122" id="Fill-6"></path>
            </g>
            <polygon id="Path" points="0 0 24 0 24 24 0 24"></polygon>
        </g>
    </g>
</svg>