<?xml version="1.0" encoding="UTF-8"?>
<svg width="24px" height="24px" viewBox="0 0 24 24" version="1.1" xmlns="http://www.w3.org/2000/svg" xmlns:xlink="http://www.w3.org/1999/xlink">
    <title>icons/ic/lernen</title>
    <g id="icons" stroke="none" stroke-width="1" fill="none" fill-rule="evenodd">
        <g id="icons/ic/lernen">
            <g id="refresh_black_24dp">
                <polygon id="Path" points="0 0 24 0 24 24 0 24"></polygon>
            </g>
            <g id="auto_stories_black_24dp">
                <rect id="Rectangle" x="0" y="0" width="24" height="24"></rect>
                <path d="M18.15,1.35 L14.15,5.35 C14.05,5.45 14,5.57 14,5.71 L14,13.88 C14,14.31 14.51,14.54 14.83,14.25 L18.83,10.65 C18.94,10.56 19,10.42 19,10.28 L19,1.71 C19,1.26 18.46,1.04 18.15,1.35 Z M22.47,5.2 C22,4.96 21.51,4.76 21,4.59 L21,16.62 C19.86,16.21 18.69,16 17.5,16 C15.6,16 13.72,16.54 12,17.58 L12,5.48 C10.38,4.55 8.51,4 6.5,4 C4.71,4 3.02,4.44 1.53,5.2 C1.2,5.36 1,5.71 1,6.08 L1,18.16 C1,18.92 1.81,19.39 2.48,19.03 C3.69,18.4 5.05,18 6.5,18 C8.57,18 10.48,18.82 12,20 C13.52,18.82 15.43,18 17.5,18 C18.95,18 20.31,18.4 21.52,19.04 C22.19,19.4 23,18.93 23,18.17 L23,6.08 C23,5.71 22.8,5.36 22.47,5.2 Z" id="Shape" fill="#000000" fill-rule="nonzero"></path>
            </g>
        </g>
    </g>
</svg>