<svg width="32" height="32" viewBox="0 0 32 32" fill="none" xmlns="http://www.w3.org/2000/svg">
    <g clip-path="url(#ii21xayg9a)">
        <path d="M32 0H0v32h32V0z" fill="#1B3D6A"/>
        <path d="M6.23 9.24h4.45c1.16 0 2.28.07 3.06.55.99.61 1.45 1.75 1.45 2.87 0 1.64-.81 2.69-1.86 2.93v.09c.9.13 2.15 1.1 2.15 3.09 0 .99-.15 2.01-1.05 2.91-.98.99-2.14 1.07-3.85 1.07H6.22V9.24h.01zm2.89 5.5c2.37 0 3.15-.07 3.15-1.79s-1.2-1.64-1.8-1.64H9.13v3.42l-.01.01zm0 5.87h1.47c1.18 0 1.91-.55 1.91-1.93 0-.64-.17-1.4-.87-1.69-.42-.17-1.47-.17-2.52-.17v3.79h.01zM17.39 13.75c0-3.09 1.66-4.84 4.8-4.84.81 0 2.02.17 2.96.9 1.21.96 1.36 2.61 1.4 3.7h-2.96c-.02-.66-.06-2.14-1.53-2.14-.37 0-.83.15-1.12.42-.48.44-.5 1.1-.5 1.47v5.14c0 .74 0 2.15 1.64 2.15 1.21 0 1.58-.99 1.58-2.45h2.98c-.02.98-.04 1.09-.13 1.66-.11.53-.29 1.51-1.42 2.41-.96.77-2.36.9-2.95.9-1.56 0-2.65-.37-3.5-1.2-.55-.53-1.27-1.31-1.27-4.07v-4.07l.02.02z" fill="#fff"/>
    </g>
    <defs>
        <clipPath id="ii21xayg9a">
            <path fill="#fff" d="M0 0h32v32H0z"/>
        </clipPath>
    </defs>
</svg>
