<?xml version="1.0" encoding="UTF-8"?>
<svg width="24px" height="24px" viewBox="0 0 24 24" version="1.1" xmlns="http://www.w3.org/2000/svg" xmlns:xlink="http://www.w3.org/1999/xlink">
    <title>icons/ic/mensa</title>
    <defs>
        <filter color-interpolation-filters="auto" id="filter-1">
            <feColorMatrix in="SourceGraphic" type="matrix" values="0 0 0 0 0.000000 0 0 0 0 0.000000 0 0 0 0 0.000000 0 0 0 1.000000 0"></feColorMatrix>
        </filter>
        <polygon id="path-2" points="0 0 8.84444211 0 8.84444211 18.9473684 0 18.9473684"></polygon>
        <polygon id="path-4" points="1.04643158 0.70806332 1.52242105 0.70806332 1.52242105 1.65543174 1.04643158 1.65543174"></polygon>
        <polygon id="path-6" points="0.205578947 0 7.20189474 0 7.20189474 18.9472737 0.205578947 18.9472737"></polygon>
    </defs>
    <g id="icons" stroke="none" stroke-width="1" fill="none" fill-rule="evenodd">
        <g id="Group">
            <g filter="url(#filter-1)" id="Group-14">
                <g transform="translate(3.000000, 3.000000)">
                    <path d="M3.16070526,7.58946316 L3.16070526,7.58946316 C2.81112632,7.58946316 2.52881053,7.3062 2.52881053,6.95756842 L2.52881053,0.631989474 C2.52881053,0.283357895 2.81112632,9.47368421e-05 3.16070526,9.47368421e-05 C3.51028421,9.47368421e-05 3.7926,0.283357895 3.7926,0.631989474 L3.7926,6.95756842 C3.7926,7.3062 3.51028421,7.58946316 3.16070526,7.58946316" id="Fill-1" fill="#000000"></path>
                    <path d="M5.68638947,7.58946316 L5.68638947,7.58946316 C5.33681053,7.58946316 5.05449474,7.3062 5.05449474,6.95756842 L5.05449474,0.631989474 C5.05449474,0.283357895 5.33681053,9.47368421e-05 5.68638947,9.47368421e-05 C6.03596842,9.47368421e-05 6.31828421,0.283357895 6.31828421,0.631989474 L6.31828421,6.95756842 C6.31828421,7.3062 6.03596842,7.58946316 5.68638947,7.58946316" id="Fill-3" fill="#000000"></path>
                    <g id="Group-7">
                        <mask id="mask-3" fill="white">
                            <use xlink:href="#path-2"></use>
                        </mask>
                        <g id="Clip-6"></g>
                        <path d="M8.84444211,0.631705263 C8.84444211,0.283073684 8.56117895,-0.000189473684 8.21254737,-0.000189473684 C7.86296842,-0.000189473684 7.57970526,0.283073684 7.57970526,0.631705263 L7.57970526,6.95728421 C7.57970526,6.97528421 7.58823158,6.98949474 7.58917895,7.00749474 L7.58065263,7.00749474 C7.56075789,8.02686316 6.73654737,8.84633684 5.71433684,8.86054737 L5.71433684,8.86433684 C5.70581053,8.86433684 5.69917895,8.8596 5.69065263,8.8596 C5.34107368,8.8596 5.05781053,9.14286316 5.05781053,9.49149474 L5.05781053,15.2818105 L5.05781053,17.0524421 C5.05781053,17.4010737 4.77549474,17.6843368 4.42591579,17.6843368 C4.07633684,17.6843368 3.79307368,17.4010737 3.79307368,17.0524421 L3.79307368,15.2818105 L3.79307368,9.49149474 C3.79307368,9.14286316 3.50981053,8.8596 3.16023158,8.8596 C3.14981053,8.8596 3.14033684,8.86528421 3.12991579,8.86528421 L3.12991579,8.86054737 C2.10770526,8.84633684 1.28444211,8.02686316 1.26454737,7.00749474 L1.25507368,7.00749474 C1.25602105,6.98949474 1.26454737,6.97528421 1.26454737,6.95728421 L1.26454737,0.631705263 C1.26454737,0.283073684 0.981284211,-0.000189473684 0.632652632,-0.000189473684 C0.283073684,-0.000189473684 -0.000189473684,0.283073684 -0.000189473684,0.631705263 L-0.000189473684,6.95728421 C-0.000189473684,6.97528421 0.00833684211,6.98949474 0.0102315789,7.00749474 L-0.000189473684,7.00749474 C0.0178105263,8.51854737 1.09781053,9.77002105 2.52833684,10.0589684 L2.52833684,17.0524421 C2.52833684,17.0638105 2.53496842,17.0742316 2.53496842,17.0865474 C2.55107368,18.1172842 3.38949474,18.9481263 4.42402105,18.9481263 C5.45191579,18.9481263 6.28370526,18.1277053 6.31212632,17.1073895 C6.31307368,17.0884421 6.32254737,17.0713895 6.32254737,17.0524421 L6.32254737,10.0589684 C7.75023158,9.76717895 8.82644211,8.51570526 8.84444211,7.00749474 L8.83402105,7.00749474 C8.83591579,6.98949474 8.84444211,6.97528421 8.84444211,6.95728421 L8.84444211,0.631705263 Z" id="Fill-5" fill="#000000" mask="url(#mask-3)"></path>
                    </g>
                    <g id="Group-10" transform="translate(16.105263, 7.578947)">
                        <mask id="mask-5" fill="white">
                            <use xlink:href="#path-4"></use>
                        </mask>
                        <g id="Clip-9"></g>
                        <path d="M1.51758947,1.18269474 C1.52895789,1.22911579 1.51758947,1.13248421 1.51758947,1.18269474" id="Fill-8" fill="#000000" mask="url(#mask-5)"></path>
                    </g>
                    <g id="Group-13" transform="translate(10.421053, 0.000000)">
                        <mask id="mask-7" fill="white">
                            <use xlink:href="#path-6"></use>
                        </mask>
                        <g id="Clip-12"></g>
                        <path d="M5.93715789,10.7923263 L3.38021053,10.7923263 C3.03157895,10.7923263 2.74831579,11.0755895 2.74831579,11.4242211 C2.74831579,11.4270632 2.75021053,11.4289579 2.75021053,11.4318 C2.74831579,11.4327474 2.74736842,11.4318 2.74547368,11.4318 L2.73505263,15.2819053 L2.73505263,17.0515895 C2.73505263,17.4011684 2.45178947,17.6834842 2.10315789,17.6834842 C1.75357895,17.6834842 1.47031579,17.4011684 1.47031579,17.0515895 L1.47031579,15.2819053 L1.47031579,12.1783263 C1.47221053,12.1603263 1.48073684,12.1470632 1.48073684,12.1290632 L1.48073684,1.33758947 C4.37968421,1.70327368 5.93715789,4.26590526 5.93715789,8.81422105 L5.93715789,10.7923263 Z M0.930315789,0.0160105263 C0.902842105,0.0131684211 0.877263158,-9.47368421e-05 0.847894737,-9.47368421e-05 C0.827052632,-9.47368421e-05 0.81,0.0103263158 0.789157895,0.0122210526 C0.773052632,0.0122210526 0.753157895,0.0103263158 0.738,0.0103263158 L0.738,0.0216947368 C0.443368421,0.0756947368 0.216,0.322010526 0.216,0.6318 L0.216,11.4621158 C0.212210526,11.4611684 0.209368421,11.4611684 0.205578947,11.4602211 L0.205578947,17.0515895 C0.205578947,17.0639053 0.212210526,17.0743263 0.213157895,17.0866421 C0.229263158,18.1164316 1.06673684,18.9472737 2.10221053,18.9472737 C3.12915789,18.9472737 3.96189474,18.1278 3.98842105,17.1074842 C3.99031579,17.0885368 4.00073684,17.0714842 4.00073684,17.0515895 L4.00073684,12.0561158 L6.56905263,12.0561158 C6.91863158,12.0561158 7.20189474,11.7728526 7.20189474,11.4242211 L7.20189474,11.4232737 L7.20189474,11.4223263 L7.20189474,8.76116842 C7.128,1.24474737 2.93778947,0.0813789474 0.930315789,0.0160105263 L0.930315789,0.0160105263 Z" id="Fill-11" fill="#000000" mask="url(#mask-7)"></path>
                    </g>
                </g>
            </g>
            <polygon id="Path" points="0 0 24 0 24 24 0 24"></polygon>
        </g>
    </g>
</svg>