<?xml version="1.0" encoding="UTF-8"?>
<svg width="24px" height="24px" viewBox="0 0 24 24" version="1.1" xmlns="http://www.w3.org/2000/svg" xmlns:xlink="http://www.w3.org/1999/xlink">
    <title>icons/ic/parken</title>
    <g id="icons" stroke="none" stroke-width="1" fill="none" fill-rule="evenodd">
        <g id="Group-2">
            <path d="M19.392,2 L4.609,2 C3.168,2 2,3.181 2,4.637 L2,19.362 C2,20.819 3.168,22 4.609,22 L19.392,22 C20.832,22 22,20.819 22,19.362 L22,4.637 C22,3.181 20.832,2 19.392,2 M19.392,3 C20.279,3 21,3.734 21,4.637 L21,19.362 C21,20.266 20.279,21 19.392,21 L4.609,21 C3.722,21 3,20.266 3,19.362 L3,4.637 C3,3.734 3.722,3 4.609,3 L19.392,3" id="Fill-1" fill="#000000"></path>
            <path d="M10.3456,10.0144 L12.6866,10.0144 C13.0966,10.0264 13.4896,10.1904 13.7896,10.4744 C13.8126,10.4974 13.8366,10.5204 13.8576,10.5444 C14.1346,10.8384 14.2806,11.2234 14.2666,11.6284 C14.2546,12.0324 14.0856,12.4074 13.7906,12.6844 C13.4896,12.9694 13.0966,13.1324 12.6826,13.1454 L12.6486,13.1464 L10.3456,13.1464 L10.3456,10.0144 Z M15.0786,10.5844 C14.9416,10.2774 14.7496,10.0054 14.5066,9.7734 C14.2596,9.5384 13.9746,9.3544 13.6596,9.2264 C13.3496,9.1014 13.0236,9.0344 12.6896,9.0274 L12.6886,9.0274 L12.6866,9.0274 L9.4736,9.0274 L9.3436,9.0274 L9.3436,9.1574 L9.3436,17.6364 C9.3466,17.9094 9.5696,18.1304 9.8416,18.1304 C10.1196,18.1304 10.3426,17.9094 10.3456,17.6374 L10.3456,14.1324 L12.6866,14.1324 C13.0736,14.1184 13.3356,14.0634 13.6596,13.9324 C13.9746,13.8054 14.2596,13.6224 14.5066,13.3864 C14.7496,13.1564 14.9416,12.8824 15.0776,12.5764 C15.3576,11.9434 15.3576,11.2174 15.0786,10.5844 L15.0786,10.5844 Z" id="Fill-3" fill="#000000"></path>
            <polygon id="Fill-5" fill="#000000" points="5.2787 8.6846 4.7877 7.8136 11.9997 3.7426 19.2137 7.8116 18.7207 8.6836 11.9997 4.8916"></polygon>
            <polygon id="Path" points="0 0 24 0 24 24 0 24"></polygon>
        </g>
    </g>
</svg>