<svg id="Ebene_1" data-name="Ebene 1" xmlns="http://www.w3.org/2000/svg" xmlns:xlink="http://www.w3.org/1999/xlink" viewBox="0 0 24 24"><defs><style>.cls-1,.cls-3{clip-rule:evenodd;}.cls-2,.cls-3{fill:none;}.cls-4{clip-path:url(#clip-path);}.cls-5{clip-path:url(#clip-path-2);}.cls-6{fill-rule:evenodd;}.cls-7{clip-path:url(#clip-path-3);}.cls-8{clip-path:url(#clip-path-4);}.cls-9{clip-path:url(#clip-path-5);}.cls-10{clip-path:url(#clip-path-6);}.cls-11{clip-path:url(#clip-path-7);}.cls-12{isolation:isolate;}.cls-13{clip-path:url(#clip-path-8);}.cls-14{clip-path:url(#clip-path-9);}.cls-15{fill:#499253;}</style><clipPath id="clip-path"><path d="M-42,8.42h-13.9V2.63H-42Zm-1.74,7a1.74,1.74,0,0,1-1.74-1.74,1.74,1.74,0,0,1,1.74-1.74A1.74,1.74,0,0,1-42,13.63,1.74,1.74,0,0,1-43.79,15.37Zm-10.42,0a1.74,1.74,0,0,1-1.74-1.74,1.74,1.74,0,0,1,1.74-1.74,1.74,1.74,0,0,1,1.74,1.74A1.74,1.74,0,0,1-54.21,15.37Zm-4-1.16a3.48,3.48,0,0,0,1.15,2.57v1.48A1.74,1.74,0,0,0-55.37,20a1.74,1.74,0,0,0,1.74-1.74v-.58h9.26v.58A1.75,1.75,0,0,0-42.63,20a1.75,1.75,0,0,0,1.74-1.74V16.78a3.48,3.48,0,0,0,1.15-2.57V2.63c0-4-4.14-4.63-9.26-4.63s-9.26.58-9.26,4.63Z"/></clipPath><clipPath id="clip-path-2"><path d="M-16.58,20a3.25,3.25,0,0,1-3.21-3.21,3.25,3.25,0,0,1,3.21-3.21,3.24,3.24,0,0,1,3.2,3.21A3.24,3.24,0,0,1-16.58,20Zm0-7.79a4.54,4.54,0,0,0-4.59,4.58,4.55,4.55,0,0,0,4.59,4.59A4.54,4.54,0,0,0-12,16.81,4.54,4.54,0,0,0-16.58,12.23Zm-7.52-1.38,2.2-2.2.73.74a6.44,6.44,0,0,0,4.68,1.92V9.48a4.52,4.52,0,0,1-3.3-1.38l-1.74-1.74A2.3,2.3,0,0,0-23,5.81a1.54,1.54,0,0,0-1.28.55l-2.57,2.57a1.79,1.79,0,0,0-.55,1.28,1.55,1.55,0,0,0,.55,1.29l2.93,2.56v4.59h1.84V13ZM-29.42,20a3.24,3.24,0,0,1-3.2-3.21,3.24,3.24,0,0,1,3.2-3.21,3.25,3.25,0,0,1,3.21,3.21A3.25,3.25,0,0,1-29.42,20Zm0-7.79A4.54,4.54,0,0,0-34,16.81a4.54,4.54,0,0,0,4.58,4.59,4.55,4.55,0,0,0,4.59-4.59A4.54,4.54,0,0,0-29.42,12.23Zm9.63-6A1.83,1.83,0,0,0-18,4.44,1.84,1.84,0,0,0-19.79,2.6a1.84,1.84,0,0,0-1.83,1.84A1.83,1.83,0,0,0-19.79,6.27Z"/></clipPath><clipPath id="clip-path-3"><path class="cls-1" d="M-20.45-65.33H-4.67l-7.46-7.4h0a1.33,1.33,0,0,1,0-1.88,1.34,1.34,0,0,1,1.89,0h0l8.79,8.72L.45-64l-1.89,1.88-8.8,8.73h0a1.34,1.34,0,0,1-1.89,0,1.33,1.33,0,0,1,0-1.88h0l7.45-7.39H-20.45Z"/></clipPath><clipPath id="clip-path-4"><path class="cls-1" d="M-28.87-73.9a1.79,1.79,0,0,1,1.77,1.8v16.2a1.79,1.79,0,0,1-1.77,1.8H-45.13a1.79,1.79,0,0,1-1.77-1.8V-72.1a1.79,1.79,0,0,1,1.77-1.8h16.26m0-1.1H-45.13A2.88,2.88,0,0,0-48-72.1v16.2A2.88,2.88,0,0,0-45.13-53h16.26A2.88,2.88,0,0,0-26-55.9V-72.1A2.88,2.88,0,0,0-28.87-75"/></clipPath><clipPath id="clip-path-5"><path class="cls-1" d="M-33.61-65.56a3.07,3.07,0,0,0-.63-.89,3,3,0,0,0-.93-.6,3.05,3.05,0,0,0-1.07-.22h-3.68v9.47a.55.55,0,0,0,.55.54.55.55,0,0,0,.55-.54v-3.85h2.58a3.09,3.09,0,0,0,1.07-.22,3.16,3.16,0,0,0,.93-.6,3,3,0,0,0,.63-.9A2.78,2.78,0,0,0-33.61-65.56Zm-5.21-.62h2.58a1.83,1.83,0,0,1,1.21.5l.07.08a1.6,1.6,0,0,1,.45,1.19A1.63,1.63,0,0,1-35-63.25a1.8,1.8,0,0,1-1.22.51h-2.57Z"/></clipPath><clipPath id="clip-path-6"><polygon class="cls-1" points="-44.39 -67.65 -44.93 -68.61 -37 -73.08 -29.07 -68.61 -29.61 -67.65 -37 -71.82 -44.39 -67.65"/></clipPath><clipPath id="clip-path-7"><rect class="cls-2" x="1" y="1" width="22" height="22"/></clipPath><clipPath id="clip-path-8"><rect class="cls-2" x="1" y="1" width="23.83" height="22"/></clipPath><clipPath id="clip-path-9"><path class="cls-3" d="M18.1,5.59v3a9.1,9.1,0,0,0-6.43-3.18c-1.53,0-2.39.87-2.39,1.76,0,4.05,9.91,1.2,9.91,7.77,0,2.74-2.62,5.8-6.87,5.8a10.8,10.8,0,0,1-6.74-2.52v-3.4a8.4,8.4,0,0,0,6.74,3.62c1.54,0,2.84-.88,2.84-1.85,0-3.73-9.7-1.43-9.7-7.89,0-3.39,3.26-5.14,6.21-5.14A10.56,10.56,0,0,1,18.1,5.59ZM1,12.06A11,11,0,1,0,12.07,1H12A11.06,11.06,0,0,0,1,12.06Z"/></clipPath></defs><path d="M-42,8.42h-13.9V2.63H-42Zm-1.74,7a1.74,1.74,0,0,1-1.74-1.74,1.74,1.74,0,0,1,1.74-1.74A1.74,1.74,0,0,1-42,13.63,1.74,1.74,0,0,1-43.79,15.37Zm-10.42,0a1.74,1.74,0,0,1-1.74-1.74,1.74,1.74,0,0,1,1.74-1.74,1.74,1.74,0,0,1,1.74,1.74A1.74,1.74,0,0,1-54.21,15.37Zm-4-1.16a3.48,3.48,0,0,0,1.15,2.57v1.48A1.74,1.74,0,0,0-55.37,20a1.74,1.74,0,0,0,1.74-1.74v-.58h9.26v.58A1.75,1.75,0,0,0-42.63,20a1.75,1.75,0,0,0,1.74-1.74V16.78a3.48,3.48,0,0,0,1.15-2.57V2.63c0-4-4.14-4.63-9.26-4.63s-9.26.58-9.26,4.63Z"/><g class="cls-4"><rect x="-174.05" y="-932.95" width="451.58" height="977.26"/></g><path d="M-16.58,20a3.25,3.25,0,0,1-3.21-3.21,3.25,3.25,0,0,1,3.21-3.21,3.24,3.24,0,0,1,3.2,3.21A3.24,3.24,0,0,1-16.58,20Zm0-7.79a4.54,4.54,0,0,0-4.59,4.58,4.55,4.55,0,0,0,4.59,4.59A4.54,4.54,0,0,0-12,16.81,4.54,4.54,0,0,0-16.58,12.23Zm-7.52-1.38,2.2-2.2.73.74a6.44,6.44,0,0,0,4.68,1.92V9.48a4.52,4.52,0,0,1-3.3-1.38l-1.74-1.74A2.3,2.3,0,0,0-23,5.81a1.54,1.54,0,0,0-1.28.55l-2.57,2.57a1.79,1.79,0,0,0-.55,1.28,1.55,1.55,0,0,0,.55,1.29l2.93,2.56v4.59h1.84V13ZM-29.42,20a3.24,3.24,0,0,1-3.2-3.21,3.24,3.24,0,0,1,3.2-3.21,3.25,3.25,0,0,1,3.21,3.21A3.25,3.25,0,0,1-29.42,20Zm0-7.79A4.54,4.54,0,0,0-34,16.81a4.54,4.54,0,0,0,4.58,4.59,4.55,4.55,0,0,0,4.59-4.59A4.54,4.54,0,0,0-29.42,12.23Zm9.63-6A1.83,1.83,0,0,0-18,4.44,1.84,1.84,0,0,0-19.79,2.6a1.84,1.84,0,0,0-1.83,1.84A1.83,1.83,0,0,0-19.79,6.27Z"/><g class="cls-5"><rect x="-235.67" y="-733.94" width="357.5" height="773.67"/></g><path class="cls-6" d="M-20.45-65.33H-4.67l-7.46-7.4h0a1.33,1.33,0,0,1,0-1.88,1.34,1.34,0,0,1,1.89,0h0l8.79,8.72L.45-64l-1.89,1.88-8.8,8.73h0a1.34,1.34,0,0,1-1.89,0,1.33,1.33,0,0,1,0-1.88h0l7.45-7.39H-20.45Z"/><g class="cls-7"><rect x="-56.75" y="-900.55" width="643.5" height="1392.6"/></g><path class="cls-6" d="M-28.87-73.9a1.79,1.79,0,0,1,1.77,1.8v16.2a1.79,1.79,0,0,1-1.77,1.8H-45.13a1.79,1.79,0,0,1-1.77-1.8V-72.1a1.79,1.79,0,0,1,1.77-1.8h16.26m0-1.1H-45.13A2.88,2.88,0,0,0-48-72.1v16.2A2.88,2.88,0,0,0-45.13-53h16.26A2.88,2.88,0,0,0-26-55.9V-72.1A2.88,2.88,0,0,0-28.87-75"/><g class="cls-8"><rect x="-225.1" y="-621.7" width="429" height="928.4"/></g><path class="cls-6" d="M-33.61-65.56a3.07,3.07,0,0,0-.63-.89,3,3,0,0,0-.93-.6,3.05,3.05,0,0,0-1.07-.22h-3.68v9.47a.55.55,0,0,0,.55.54.55.55,0,0,0,.55-.54v-3.85h2.58a3.09,3.09,0,0,0,1.07-.22,3.16,3.16,0,0,0,.93-.6,3,3,0,0,0,.63-.9A2.78,2.78,0,0,0-33.61-65.56Zm-5.21-.62h2.58a1.83,1.83,0,0,1,1.21.5l.07.08a1.6,1.6,0,0,1,.45,1.19A1.63,1.63,0,0,1-35-63.25a1.8,1.8,0,0,1-1.22.51h-2.57Z"/><g class="cls-9"><rect x="-225.1" y="-621.7" width="429" height="928.4"/></g><polygon class="cls-6" points="-44.39 -67.65 -44.93 -68.61 -37 -73.08 -29.07 -68.61 -29.61 -67.65 -37 -71.82 -44.39 -67.65"/><g class="cls-10"><rect x="-225.1" y="-621.7" width="429" height="928.4"/></g><g class="cls-11"><g class="cls-12"><g class="cls-13"><g class="cls-14"><g class="cls-11"><rect class="cls-15" x="-0.83" y="-0.83" width="25.69" height="25.67"/></g></g></g></g></g></svg>