<svg width="16" height="16" viewBox="0 0 16 16" fill="none" xmlns="http://www.w3.org/2000/svg">
<g id="icons/soup" clip-path="url(#clip0_165_1994)">
<path id="Vector" d="M5.67329 0.277272C5.51786 0.107713 5.26608 0.108289 5.11065 0.277847C4.36709 1.09016 4.36709 2.41075 5.11065 3.22115L5.11223 3.22268L5.11364 3.22422C5.54775 3.6999 5.54863 4.47096 5.11592 4.94243C4.96014 5.11199 4.96014 5.38666 5.11558 5.55622C5.19329 5.64099 5.29526 5.68319 5.39707 5.68319C5.49869 5.68319 5.60049 5.64099 5.67821 5.5566C6.42141 4.74659 6.42107 3.42523 5.67715 2.61119C5.67715 2.61119 5.67487 2.60966 5.67346 2.60812L5.67206 2.60563C5.2397 2.13263 5.24005 1.36387 5.67346 0.890674C5.82836 0.7215 5.82836 0.446831 5.67329 0.277272Z" fill="#2B78A7"/>
<path id="Vector_2" d="M8.28464 0.277544C8.12904 0.108561 7.87744 0.108561 7.72198 0.27812C7.36138 0.671518 7.16284 1.19458 7.16284 1.75025C7.16284 2.30266 7.35891 2.82169 7.71498 3.21413C7.71831 3.21815 7.72144 3.22161 7.72518 3.22525C8.15924 3.70036 8.16051 4.47066 7.72711 4.94309C7.57164 5.11264 7.57164 5.38731 7.72711 5.55706C7.80478 5.64184 7.90678 5.68423 8.00804 5.68423C8.11024 5.68423 8.21204 5.64184 8.28971 5.55764C9.02537 4.75512 9.03118 3.45389 8.30978 2.63851C8.30924 2.63794 8.30924 2.63755 8.30891 2.6364C8.30117 2.62719 8.29344 2.6176 8.28444 2.60821C8.07418 2.37938 7.95831 2.0746 7.95831 1.75063C7.95831 1.42686 8.07398 1.12189 8.28478 0.891908C8.44058 0.721772 8.44004 0.447102 8.28464 0.277544Z" fill="#1B3D6A"/>
<path id="Vector_3" d="M10.8962 0.277544C10.7408 0.108561 10.489 0.108561 10.3336 0.27812C9.97304 0.671518 9.77417 1.19458 9.77417 1.75025C9.77417 2.30227 9.97017 2.82169 10.3264 3.21355C10.3278 3.21547 10.3301 3.21719 10.3315 3.21893C10.3334 3.22046 10.3345 3.22295 10.3362 3.22487C10.7704 3.69998 10.7712 4.47047 10.3382 4.9429C10.1828 5.11245 10.1828 5.38712 10.3382 5.55668C10.4158 5.64146 10.5174 5.68366 10.6194 5.68366C10.721 5.68366 10.8231 5.64146 10.9005 5.55706C11.6402 4.7507 11.6428 3.43874 10.91 2.62413C10.9089 2.62298 10.9078 2.62106 10.9078 2.62106C10.9036 2.61645 10.9005 2.61224 10.8961 2.60744C10.6862 2.37861 10.5698 2.07383 10.5698 1.74986C10.5698 1.42609 10.6858 1.12111 10.8964 0.891137C11.0515 0.721772 11.0515 0.447102 10.8962 0.277544Z" fill="#1B3D6A"/>
<path id="Vector_4" d="M0.104848 7.49391C0.432057 10.3315 2.03645 12.8109 4.34379 14.1167V15.7921H10.2969C11.0517 15.7921 11.6657 15.1221 11.6657 14.2987V14.1168C13.9732 12.8109 15.5772 10.3317 15.9048 7.49413L15.9609 7.00537H0.048584L0.104848 7.49391ZM15.0443 7.87333C14.6023 10.3962 13.0339 12.5471 10.8605 13.5773H9.58672V14.4454H10.8517C10.7915 14.7189 10.5662 14.924 10.2971 14.924H5.1394V14.4454H6.63127V13.5775H5.14889C2.97571 12.5473 1.40753 10.3969 0.964979 7.87333H15.0443Z" fill="#1B3D6A"/>
<path id="Vector_5" d="M11.502 12.0723C11.5656 12.0723 11.6302 12.0557 11.6892 12.0204C12.6716 11.4471 13.391 10.4447 13.6626 9.27056C13.7166 9.03812 13.5878 8.80198 13.3748 8.74387C13.1614 8.68503 12.9451 8.8254 12.8915 9.05791C12.6742 9.99623 12.0998 10.7972 11.3145 11.2554C11.1206 11.3686 11.0474 11.6317 11.1512 11.8431C11.2228 11.9891 11.3601 12.0723 11.502 12.0723Z" fill="#1B3D6A"/>
<path id="Vector_6" d="M10.5386 12.7563C10.7992 12.7563 11.0104 12.5259 11.0104 12.2417C11.0104 11.9575 10.7992 11.7271 10.5386 11.7271C10.2781 11.7271 10.0669 11.9575 10.0669 12.2417C10.0669 12.5259 10.2781 12.7563 10.5386 12.7563Z" fill="#1B3D6A"/>
</g>
<defs>
<clipPath id="clip0_165_1994">
<rect width="16" height="16" fill="white"/>
</clipPath>
</defs>
</svg>
