<svg width="14" height="13" viewBox="0 0 14 13" fill="none" xmlns="http://www.w3.org/2000/svg">
<g id="Group">
<g id="Group_2">
<path id="Vector" d="M13.5 7.69971C13.5 7.28721 13.1625 6.94971 12.75 6.94971H11.25V8.44971H12.75C13.1625 8.44971 13.5 8.11221 13.5 7.69971Z" fill="#737373"/>
<path id="Vector_2" d="M12.75 9.94971H11.25V11.4497H12.75C13.1625 11.4497 13.5 11.1122 13.5 10.6997C13.5 10.2872 13.1625 9.94971 12.75 9.94971Z" fill="#737373"/>
<path id="Vector_3" d="M6.75 7.69971H5.25V10.6997H6.75C6.75 11.5247 7.425 12.1997 8.25 12.1997H10.5V6.19971H8.25C7.425 6.19971 6.75 6.87471 6.75 7.69971Z" fill="#737373"/>
<path id="Vector_4" d="M1.5 6.94971C1.5 6.12471 2.175 5.44971 3 5.44971H4.125C5.5725 5.44971 6.75 4.27221 6.75 2.82471C6.75 1.37721 5.5725 0.199707 4.125 0.199707H1.5C1.0875 0.199707 0.75 0.537207 0.75 0.949707C0.75 1.36221 1.0875 1.69971 1.5 1.69971H4.125C4.7475 1.69971 5.25 2.20221 5.25 2.82471C5.25 3.44721 4.7475 3.94971 4.125 3.94971H3C1.3425 3.94971 0 5.29221 0 6.94971C0 8.60721 1.3425 9.94971 3 9.94971H4.5V8.44971H3C2.175 8.44971 1.5 7.77471 1.5 6.94971Z" fill="#737373"/>
</g>
</g>
</svg>
