<svg width="16" height="16" viewBox="0 0 16 16" fill="none" xmlns="http://www.w3.org/2000/svg">
<g id="icons/tierisch">
<path id="Vector" d="M14.5235 1.4763C12.7053 -0.341979 10.0189 -0.421856 8.17788 0.91371C7.31094 1.54265 6.70288 2.43027 6.41936 3.48062C6.33382 3.79752 6.26102 4.08252 6.1906 4.35816C5.77783 5.97402 5.57061 6.78511 4.26482 8.09096L3.72078 8.63493L4.50675 9.42101L3.13342 10.7944C2.829 10.5756 2.45742 10.4557 2.06125 10.4557C0.794035 10.4557 -0.228762 11.656 0.0445423 12.9133C0.180772 13.5401 0.621924 14.0344 1.22465 14.2355C1.48224 14.3215 1.67923 14.5186 1.76518 14.7761C1.85382 15.0419 1.9987 15.2766 2.19576 15.4736C2.95256 16.2305 4.21918 16.16 4.98878 15.3341C5.65323 14.621 5.71378 13.5821 5.21349 12.8772L6.58808 11.5025L7.36521 12.2798L7.84848 11.7964C9.40101 10.2437 10.2837 10.1951 12.539 9.57564C14.1683 9.12829 15.4006 7.88065 15.8351 6.23818C16.2872 4.52996 15.7968 2.74978 14.5235 1.4763ZM5.92268 10.837L3.84475 12.9151L4.27141 13.2417C4.51611 13.429 4.58514 13.6792 4.59998 13.8562C4.65337 14.4933 4.10767 15.0589 3.48822 15.0589C3.08879 15.0589 2.77194 14.8203 2.65786 14.4782C2.47734 13.9371 2.06358 13.5233 1.52255 13.3427C1.23362 13.2463 1.03011 13.017 0.964141 12.7134C0.885755 12.3528 1.01445 11.974 1.30837 11.7001C1.73133 11.3059 2.41768 11.2737 2.7642 11.7354L3.08973 12.1691L5.17228 10.0865C5.43464 10.3489 5.65704 10.5713 5.92268 10.837ZM12.29 8.668C10.1091 9.26705 9.00915 9.37734 7.36714 10.9506C7.05828 10.6417 5.24085 8.82423 5.05085 8.6342C6.65803 6.98008 6.74001 5.90374 7.32781 3.72593C7.77741 2.06031 9.25968 0.941195 11.0163 0.941195C12.0746 0.941195 13.0839 1.36762 13.8581 2.14188C16.029 4.31302 15.1034 7.89552 12.29 8.668Z" fill="#2B78A7"/>
</g>
</svg>
