<?xml version="1.0" encoding="UTF-8"?>
<svg width="24px" height="24px" viewBox="0 0 24 24" version="1.1" xmlns="http://www.w3.org/2000/svg" xmlns:xlink="http://www.w3.org/1999/xlink">
    <title>icons/ic/train</title>
    <g id="icons" stroke="none" stroke-width="1" fill="none" fill-rule="evenodd">
        <g id="train_black_24dp">
            <polygon id="Path" points="0 0 24 0 24 24 0 24"></polygon>
            <path d="M12,2 C8,2 4,2.5 4,6 L4,15.5 C4,17.43 5.57,19 7.5,19 L6.35,20.15 C6.04,20.46 6.26,21 6.71,21 L7.8,21 C7.93,21 8.06,20.95 8.15,20.85 L10,19 L14,19 L15.85,20.85 C15.94,20.94 16.07,21 16.2,21 L17.29,21 C17.74,21 17.96,20.46 17.64,20.15 L16.5,19 C18.43,19 20,17.43 20,15.5 L20,6 C20,2.5 16,2 12,2 Z M7.5,17 C6.67,17 6,16.33 6,15.5 C6,14.67 6.67,14 7.5,14 C8.33,14 9,14.67 9,15.5 C9,16.33 8.33,17 7.5,17 Z M11,10 L6,10 L6,6 L11,6 L11,10 Z M16.5,17 C15.67,17 15,16.33 15,15.5 C15,14.67 15.67,14 16.5,14 C17.33,14 18,14.67 18,15.5 C18,16.33 17.33,17 16.5,17 Z M18,10 L13,10 L13,6 L18,6 L18,10 Z" id="Shape" fill="#000000" fill-rule="nonzero"></path>
        </g>
    </g>
</svg>