<?xml version="1.0" encoding="UTF-8"?>
<svg width="24px" height="24px" viewBox="0 0 24 24" version="1.1" xmlns="http://www.w3.org/2000/svg" xmlns:xlink="http://www.w3.org/1999/xlink">
    <title>icons/ic/tram</title>
    <g id="icons" stroke="none" stroke-width="1" fill="none" fill-rule="evenodd">
        <g id="tram_black_24dp">
            <polygon id="Path" points="0 0 24 0 24 24 0 24"></polygon>
            <path d="M13,5 L13.75,3.5 L17,3.5 L17,2 L7,2 L7,3.5 L11.75,3.5 L11,5 C7.87,5.09 5,5.73 5,8.5 L5,17 C5,18.5 6.11,19.73 7.55,19.95 L6.36,21.14 C6.04,21.46 6.26,22 6.71,22 L7.8,22 C7.93,22 8.06,21.95 8.15,21.85 L10,20 L14,20 L15.85,21.85 C15.94,21.94 16.07,22 16.2,22 L17.29,22 C17.74,22 17.96,21.46 17.64,21.15 L16.45,19.96 C17.89,19.73 19,18.5 19,17 L19,8.5 C19,5.73 16.13,5.09 13,5 Z M12,18.5 C11.17,18.5 10.5,17.83 10.5,17 C10.5,16.17 11.17,15.5 12,15.5 C12.83,15.5 13.5,16.17 13.5,17 C13.5,17.83 12.83,18.5 12,18.5 Z M17,14 L7,14 L7,9 L17,9 L17,14 Z" id="Shape" fill="#000000" fill-rule="nonzero"></path>
        </g>
    </g>
</svg>