<svg width="16" height="17" viewBox="0 0 16 17" fill="none" xmlns="http://www.w3.org/2000/svg">
<g id="icons/vegan" clip-path="url(#clip0_165_1959)">
<path id="Vector" d="M14.4683 0.736079C12.9159 0.0348393 11.1389 0.9944 10.841 2.64099C10.8397 2.64161 10.8383 2.64231 10.8371 2.64293C10.4844 1.40726 9.34505 0.5 7.99772 0.5C6.65118 0.5 5.51233 1.40626 5.15901 2.64086C4.93639 1.41206 3.86097 0.505114 2.60033 0.505114C1.56136 0.505114 0.567382 1.13498 0.170362 2.18631C-0.164602 3.07333 0.0163231 4.02574 0.563115 4.71681C0.113829 6.27506 0.871599 7.9472 2.35553 8.628C2.55213 9.98153 3.77789 10.9637 5.15628 10.8419C5.46492 11.9344 6.38812 12.7715 7.52712 12.9547V16.5H8.46832V12.9547C9.60745 12.7715 10.5307 11.9342 10.8393 10.8415C12.2215 10.9657 13.4478 9.9816 13.6445 8.628C15.1327 7.9452 15.8847 6.26997 15.4369 4.71681C15.5683 4.55076 15.6787 4.36921 15.7667 4.17435C16.3581 2.86543 15.7774 1.32748 14.4683 0.736079ZM3.27016 8.29033L3.26313 7.9648L2.95599 7.8566C1.69579 7.4128 1.05635 6.02053 1.53473 4.77739L1.64453 4.49203L1.42847 4.27575C0.987805 3.83475 0.810678 3.15484 1.05087 2.51883C1.30219 1.85332 1.93347 1.44629 2.60033 1.44629C3.47179 1.44629 4.20026 2.12513 4.25598 2.99841L4.27546 3.30355L4.56215 3.40974C4.73497 3.47377 4.89933 3.55773 5.05287 3.66016C5.06589 3.8477 5.09912 4.03945 5.14345 4.20692C3.91954 5.61504 3.89837 7.7536 5.17184 9.18407C5.10401 9.40767 5.05975 9.65567 5.04857 9.90693C4.09739 9.97627 3.29039 9.2288 3.27016 8.29033ZM8.46832 11.9951V8.744L9.75179 7.614L9.12985 6.90759L8.46832 7.49007V6.68911L9.75179 5.55904L9.12985 4.85266L8.01259 5.83635H7.98285L6.86552 4.85266L6.24362 5.55904L7.52712 6.68911V7.49007L6.86552 6.90759L6.24362 7.614L7.52712 8.744V11.9951C6.6423 11.782 5.9868 10.9847 5.9868 10.0403C5.9868 9.76707 6.04064 9.5022 6.14683 9.25293L6.27446 8.95333L6.0391 8.72833C4.88048 7.6206 4.87044 5.78355 6.00613 4.66201L6.22367 4.44717L6.11581 4.16111C6.02799 3.9283 5.98216 3.67807 5.9879 3.41137C6.00964 2.32137 6.90252 1.44117 7.99772 1.44117C9.14352 1.44117 10.0567 2.39986 10.0065 3.5443C9.98959 3.92115 9.88859 4.13567 9.77179 4.4472L9.98932 4.66204C11.1248 5.78326 11.1155 7.6202 9.95639 8.72833L9.72105 8.95333L9.84865 9.25293C9.95479 9.50213 10.0087 9.76713 10.0087 10.0403C10.0086 10.9871 9.35079 11.7826 8.46832 11.9951ZM14.5715 4.27578L14.3555 4.49209L14.4653 4.77743C14.9432 6.01941 14.3054 7.4124 13.044 7.85667L12.7369 7.9648L12.7298 8.29033C12.7093 9.23747 11.8925 9.97853 10.9468 9.90653C10.9361 9.66347 10.8935 9.41467 10.8235 9.18407C12.0632 7.79173 12.1086 5.65272 10.8519 4.20692C10.8962 4.03977 10.9284 3.85325 10.9423 3.66333C11.0971 3.55945 11.2631 3.47446 11.4378 3.40974L11.7245 3.30355L11.7439 2.99845C11.7567 2.79895 11.8051 2.60497 11.8877 2.42201C12.2585 1.60133 13.2342 1.21134 14.0808 1.59383C14.4843 1.77614 14.7927 2.10461 14.9491 2.51883C15.1891 3.15434 15.0126 3.83431 14.5715 4.27578Z" fill="#2B78A7"/>
</g>
<defs>
<clipPath id="clip0_165_1959">
<rect width="16" height="16" fill="white" transform="translate(0 0.5)"/>
</clipPath>
</defs>
</svg>
