<svg width="16" height="16" viewBox="0 0 16 16" fill="none" xmlns="http://www.w3.org/2000/svg">
<g id="icons/vegetarian" clip-path="url(#clip0_165_1296)">
<path id="Vector" d="M13.7741 2.81437C13.1226 1.56003 11.7434 0.881134 10.3773 1.16342C9.7874 0.432065 8.92027 0.00439453 7.99787 0.00439453C7.07793 0.00439453 6.21228 0.432034 5.62263 1.16342C4.25526 0.880848 2.87653 1.56167 2.22596 2.81437C0.895107 3.23363 -0.0285044 4.52744 0.000672057 5.97813C0.0346171 7.66446 1.30489 8.96393 2.845 9.13046C4.27189 10.7451 5.19709 12.9188 5.45592 15.2743C5.50109 15.6856 5.84667 15.9957 6.25975 15.9957H9.74027C10.1533 15.9957 10.4989 15.6856 10.5441 15.2743C10.7865 13.068 11.8002 10.8336 13.3355 9.10899C14.8186 8.87239 15.9674 7.56086 15.9993 5.97813C16.0285 4.52744 15.1049 3.23363 13.7741 2.81437ZM9.62207 15.0545H6.37809C6.10975 12.7971 5.2701 10.6942 3.98461 9.03233C4.15437 8.98393 4.32067 8.92066 4.48167 8.84286C4.96952 9.28613 5.6173 9.42693 6.21062 9.26999L8 14.0419L9.78947 9.26999C10.3858 9.42793 11.0362 9.28426 11.5225 8.84146C11.7232 8.93686 11.9341 9.01086 12.1493 9.0624C10.7833 10.8058 9.8786 12.9371 9.62207 15.0545ZM7.60013 10.2951C7.86607 10.358 8.13947 10.357 8.4 10.2948L8 11.3614L7.60013 10.2951ZM12.8558 8.20613C12.4549 8.20606 12.0425 8.08439 11.6943 7.86339C11.6733 7.85006 11.6516 7.83626 11.6217 7.82226L11.2673 7.65666L11.0397 7.97486C10.7011 8.44833 10.0925 8.51986 9.67533 8.17933L8.99033 7.62019L8.90913 8.50066C8.86013 9.03213 8.4254 9.40066 8 9.40066C7.5444 9.40066 7.1366 8.99693 7.0908 8.50073L7.00967 7.62019L6.32463 8.17933C5.90988 8.51799 5.30307 8.45113 4.96115 7.97299L4.69259 7.59746L4.27986 7.88086C3.93291 8.09713 3.55753 8.20679 3.164 8.20679C2.11697 8.20679 0.96958 7.34746 0.94166 5.95922C0.919733 4.86981 1.64444 3.90683 2.6648 3.66943L2.89589 3.61566L2.9901 3.3979C3.44371 2.34909 4.58718 1.79385 5.66769 2.14792L6.01278 2.26102L6.20965 1.95586C6.62389 1.31382 7.27567 0.945601 7.99787 0.945601C8.72273 0.945601 9.37607 1.31382 9.79033 1.95586L9.9872 2.26102L10.3323 2.14795C11.4139 1.79347 12.5566 2.34993 13.0099 3.39793L13.1041 3.61569L13.3352 3.66946C14.3556 3.90685 15.0803 4.86984 15.0583 5.95925C15.0331 7.21339 14.0489 8.20613 12.8558 8.20613Z" fill="#2B78A7"/>
</g>
<defs>
<clipPath id="clip0_165_1296">
<rect width="16" height="16" fill="white"/>
</clipPath>
</defs>
</svg>
