<?xml version="1.0" encoding="UTF-8"?>
<svg width="24px" height="24px" viewBox="0 0 24 24" version="1.1" xmlns="http://www.w3.org/2000/svg" xmlns:xlink="http://www.w3.org/1999/xlink">
    <title>icons/ic/temperatur</title>
    <g id="icons" stroke="none" stroke-width="1" fill="none" fill-rule="evenodd">
        <g id="Group-9">
            <g>
                <g id="Group-3" transform="translate(7.000000, 1.000000)">
                    <mask id="mask-3" fill="white">
                        <polygon id="path-2" points="0 0 10 0 10 22 0 22"></polygon>
                    </mask>
                    <g id="Clip-2"></g>
                    <path d="M4.99994568,19.9983001 C3.3221743,19.9983001 1.9572261,18.6051076 1.9572261,16.8926188 C1.9572261,15.8275612 2.48328861,14.8475757 3.36438919,14.2730633 C3.53324876,14.163685 3.63391505,13.9736539 3.63391505,13.7703649 L3.63391505,3.39599709 C3.63391505,2.62703436 4.24765464,2.00280456 4.99994568,2.00280456 C5.75223672,2.00280456 6.36489388,2.62703436 6.36489388,3.39599709 L6.36489388,13.7703649 C6.36489388,13.9736539 6.4666426,14.163685 6.63550217,14.2730633 C7.51660275,14.8475757 8.04266526,15.8275612 8.04266526,16.8926188 C8.04266526,18.6051076 6.67771706,19.9983001 4.99994568,19.9983001 M7.53608655,13.4588025 L7.53608655,3.39599709 C7.53608655,1.96855478 6.39844931,0.80737687 4.99994568,0.80737687 C3.60144205,0.80737687 2.46380481,1.96855478 2.46380481,3.39599709 L2.46380481,13.4588025 C1.40843249,14.2697488 0.787115865,15.5303615 0.787115865,16.8926188 C0.787115865,19.2635872 2.67704414,21.192623 4.99994568,21.192623 C7.32284722,21.192623 9.2127755,19.2635872 9.2127755,16.8926188 C9.2127755,15.5303615 8.59037644,14.2697488 7.53608655,13.4588025" id="Fill-1" fill="#FFFFFF" mask="url(#mask-3)"></path>
                </g>
                <polygon id="Path" points="0 0 24 0 24 24 0 24"></polygon>
            </g>
        </g>
    </g>
</svg>