<svg width="32" height="32" viewBox="0 0 32 32" fill="none" xmlns="http://www.w3.org/2000/svg">
    <mask id="987bgjlqba" style="mask-type:alpha" maskUnits="userSpaceOnUse" x="0" y="0" width="32" height="32">
        <path fill="#D9D9D9" d="M0 0h32v32H0z"/>
    </mask>
    <g mask="url(#987bgjlqba)">
        <path d="M18.6 29.2a1.213 1.213 0 0 1-1.017.083 1.39 1.39 0 0 1-.783-.683l-2-4a1.213 1.213 0 0 1-.083-1.017 1.39 1.39 0 0 1 .683-.783 1.213 1.213 0 0 1 1.017-.083c.344.122.605.35.783.683l2 4c.178.333.206.672.083 1.017-.122.344-.35.605-.683.783zm8 0a1.213 1.213 0 0 1-1.017.083 1.39 1.39 0 0 1-.783-.683l-2-4a1.213 1.213 0 0 1-.083-1.017 1.39 1.39 0 0 1 .683-.783 1.213 1.213 0 0 1 1.017-.083c.344.122.605.35.783.683l2 4c.178.333.206.672.083 1.017-.122.344-.35.605-.683.783zm-16 0a1.213 1.213 0 0 1-1.017.083A1.391 1.391 0 0 1 8.8 28.6l-2-4a1.213 1.213 0 0 1-.083-1.017c.122-.344.35-.605.683-.783a1.213 1.213 0 0 1 1.017-.083c.344.122.605.35.783.683l2 4c.178.333.206.672.083 1.017-.122.344-.35.605-.683.783zm-.6-7.867c-2.022 0-3.75-.716-5.183-2.15-1.434-1.433-2.15-3.16-2.15-5.183 0-1.844.61-3.456 1.833-4.833 1.222-1.378 2.733-2.19 4.533-2.434A7.836 7.836 0 0 1 11.95 3.75 7.87 7.87 0 0 1 16 2.667c2 0 3.739.639 5.217 1.916 1.477 1.278 2.372 2.873 2.683 4.784 1.533.133 2.822.766 3.867 1.9 1.044 1.133 1.566 2.489 1.566 4.066 0 1.667-.583 3.084-1.75 4.25-1.166 1.167-2.583 1.75-4.25 1.75H10zm0-2.666h13.333c.934 0 1.723-.323 2.367-.967.644-.644.967-1.433.967-2.367 0-.933-.323-1.722-.967-2.366-.645-.645-1.433-.967-2.367-.967h-2v-1.333c0-1.467-.522-2.722-1.566-3.767-1.045-1.044-2.3-1.567-3.767-1.567a5.193 5.193 0 0 0-2.917.867A5.415 5.415 0 0 0 11.1 8.533l-.333.8h-.834c-1.266.045-2.35.517-3.25 1.417-.9.9-1.35 1.983-1.35 3.25 0 1.289.456 2.389 1.367 3.3s2.011 1.367 3.3 1.367z" fill="#1C1B1F"/>
    </g>
</svg>
