<svg width="32" height="32" viewBox="0 0 32 32" fill="none" xmlns="http://www.w3.org/2000/svg">
    <mask id="w4uxlmroya" style="mask-type:alpha" maskUnits="userSpaceOnUse" x="0" y="0" width="32" height="32">
        <path fill="#D9D9D9" d="M0 0h32v32H0z"/>
    </mask>
    <g mask="url(#w4uxlmroya)">
        <path d="M14.667 6.667V1.333h2.666v5.334h-2.666zm8.866 3.666-1.866-1.866 3.766-3.8 1.867 1.9-3.767 3.766zm1.8 7v-2.666h5.334v2.666h-5.334zm.1 9.967-3.766-3.767 1.866-1.866 3.8 3.733-1.9 1.9zM8.467 10.333 4.7 6.567l1.9-1.9 3.733 3.8-1.866 1.866zm-.467 15h6c.556 0 1.028-.194 1.417-.583.389-.389.583-.861.583-1.417 0-.555-.189-1.027-.567-1.416a1.874 1.874 0 0 0-1.4-.584h-1.7l-.666-1.6a3.822 3.822 0 0 0-1.467-1.75 3.954 3.954 0 0 0-2.2-.65c-1.111 0-2.056.39-2.833 1.167C4.389 19.278 4 20.222 4 21.333c0 1.112.389 2.056 1.167 2.834.777.777 1.722 1.166 2.833 1.166zM8 28c-1.844 0-3.417-.65-4.717-1.95-1.3-1.3-1.95-2.872-1.95-4.717 0-1.844.65-3.416 1.95-4.716 1.3-1.3 2.873-1.95 4.717-1.95a6.51 6.51 0 0 1 3.65 1.083 6.544 6.544 0 0 1 2.45 2.917c1.289 0 2.372.477 3.25 1.433.878.956 1.317 2.1 1.317 3.433-.045 1.267-.517 2.328-1.417 3.184C16.35 27.572 15.267 28 14 28H8zm10.667-4.467c-.111-.444-.223-.877-.334-1.3-.11-.422-.222-.855-.333-1.3a5.441 5.441 0 0 0 2.417-1.966A5.12 5.12 0 0 0 21.333 16c0-1.467-.522-2.722-1.566-3.767-1.045-1.044-2.3-1.566-3.767-1.566-1.333 0-2.5.433-3.5 1.3-1 .866-1.589 1.966-1.767 3.3a24.69 24.69 0 0 0-1.366-.3 24.676 24.676 0 0 1-1.367-.3c.311-1.956 1.228-3.556 2.75-4.8C12.272 8.622 14.022 8 16 8c2.222 0 4.111.778 5.667 2.333C23.222 11.89 24 13.778 24 16c0 1.711-.489 3.25-1.467 4.617-.977 1.366-2.266 2.339-3.866 2.916z" fill="#1C1B1F"/>
    </g>
</svg>
