<svg width="32" height="32" viewBox="0 0 32 32" fill="none" xmlns="http://www.w3.org/2000/svg">
    <mask id="qymsb66tla" style="mask-type:alpha" maskUnits="userSpaceOnUse" x="0" y="0" width="32" height="32">
        <path fill="#D9D9D9" d="M0 0h32v32H0z"/>
    </mask>
    <g mask="url(#qymsb66tla)">
        <path d="M8.667 25.333a1.61 1.61 0 0 1-1.184-.483A1.61 1.61 0 0 1 7 23.667c0-.467.161-.862.483-1.184A1.61 1.61 0 0 1 8.667 22c.466 0 .86.161 1.183.483.322.322.483.717.483 1.184 0 .466-.16.86-.483 1.183a1.61 1.61 0 0 1-1.183.483zm4 4a1.61 1.61 0 0 1-1.184-.483A1.61 1.61 0 0 1 11 27.667c0-.467.161-.862.483-1.184A1.61 1.61 0 0 1 12.667 26c.466 0 .86.161 1.183.483.322.322.483.717.483 1.184 0 .466-.16.86-.483 1.183a1.61 1.61 0 0 1-1.183.483zm4-4a1.61 1.61 0 0 1-1.184-.483A1.61 1.61 0 0 1 15 23.667c0-.467.161-.862.483-1.184A1.61 1.61 0 0 1 16.667 22c.466 0 .86.161 1.183.483.322.322.483.717.483 1.184 0 .466-.16.86-.483 1.183a1.61 1.61 0 0 1-1.183.483zm8 0a1.61 1.61 0 0 1-1.184-.483A1.61 1.61 0 0 1 23 23.667c0-.467.161-.862.483-1.184A1.61 1.61 0 0 1 24.667 22c.466 0 .86.161 1.183.483.322.322.483.717.483 1.184 0 .466-.16.86-.483 1.183a1.61 1.61 0 0 1-1.183.483zm-4 4a1.61 1.61 0 0 1-1.184-.483A1.61 1.61 0 0 1 19 27.667c0-.467.161-.862.483-1.184A1.61 1.61 0 0 1 20.667 26c.466 0 .86.161 1.183.483.322.322.483.717.483 1.184 0 .466-.16.86-.483 1.183a1.61 1.61 0 0 1-1.183.483zM10 20c-2.022 0-3.75-.717-5.183-2.15-1.434-1.433-2.15-3.161-2.15-5.183 0-1.845.61-3.456 1.833-4.834C5.722 6.455 7.233 5.644 9.033 5.4a7.836 7.836 0 0 1 2.917-2.983A7.87 7.87 0 0 1 16 1.333c2 0 3.739.64 5.217 1.917 1.478 1.278 2.372 2.872 2.683 4.783 1.533.134 2.822.767 3.867 1.9 1.044 1.134 1.566 2.49 1.566 4.067 0 1.667-.583 3.083-1.75 4.25C26.417 19.417 25 20 23.333 20H10zm0-2.667h13.333c.934 0 1.723-.322 2.367-.966.645-.645.967-1.434.967-2.367s-.323-1.722-.967-2.367c-.644-.644-1.433-.966-2.367-.966h-2V9.333c0-1.466-.522-2.722-1.566-3.766C18.722 4.522 17.467 4 16 4a5.193 5.193 0 0 0-2.917.867A5.415 5.415 0 0 0 11.1 7.2l-.333.8h-.834c-1.266.044-2.35.517-3.25 1.417-.9.9-1.35 1.983-1.35 3.25 0 1.289.456 2.389 1.367 3.3.911.91 2.011 1.366 3.3 1.366z" fill="#1C1B1F"/>
    </g>
</svg>
