<svg width="10" height="15" viewBox="0 0 10 15" fill="none" xmlns="http://www.w3.org/2000/svg">
<g id="Group 43">
<path id="Vector" d="M4.75145 2.99971C5.50122 2.99971 6.10903 2.37291 6.10903 1.59971C6.10903 0.826509 5.50122 0.199707 4.75145 0.199707C4.00168 0.199707 3.39388 0.826509 3.39388 1.59971C3.39388 2.37291 4.00168 2.99971 4.75145 2.99971Z" fill="#737373"/>
<path id="Vector_2" d="M9.50304 7.8997V6.4997C8.4577 6.5137 7.40558 5.9747 6.74037 5.2187L5.86473 4.2177C5.74934 4.0847 5.60679 3.9797 5.45067 3.9027C5.44388 3.9027 5.44388 3.8957 5.43709 3.8957H5.43031C5.19273 3.7557 4.92122 3.6857 4.62255 3.7137C3.90982 3.7767 3.39394 4.4277 3.39394 5.1627V9.2997C3.39394 10.0697 4.00485 10.6997 4.75152 10.6997H8.14546V14.1997H9.50304V10.3497C9.50304 9.5797 8.89213 8.9497 8.14546 8.9497H6.10909V6.5347C6.98473 7.2837 8.31516 7.8927 9.50304 7.8997ZM5.31491 11.3997C5.03661 12.2117 4.28315 12.7997 3.39394 12.7997C2.26715 12.7997 1.35758 11.8617 1.35758 10.6997C1.35758 9.7827 1.92776 9.0127 2.71515 8.7187V7.2697C1.16752 7.5917 0 9.0057 0 10.6997C0 12.6317 1.52049 14.1997 3.39394 14.1997C5.03661 14.1997 6.40776 12.9957 6.72 11.3997H5.31491Z" fill="#737373"/>
</g>
</svg>
