<svg
	xmlns="http://www.w3.org/2000/svg" viewBox="0 0 494.78 216.74">
	<g id="Ebene_2" data-name="Ebene 2">
		<g id="Schriftzug">
			<polygon class="cls-1" style="fill:#1b3d6a;" points="0 0 0 108.37 0 216.74 421.63 216.74 421.63 108.37 494.79 108.37 494.79 0 0 0"/>
			<path class="cls-2" style="fill:#fff;" d="M16.72,16.72H41.43c6.43,0,12.65.41,16.94,3.07,5.51,3.36,8.06,9.69,8.06,15.92,0,9.08-4.49,14.9-10.31,16.23v.51c5,.71,11.94,6.12,11.94,17.15,0,5.51-.81,11.12-5.81,16.12-5.41,5.51-11.84,5.92-21.34,5.92H16.72Zm16,30.52c13.17,0,17.45-.41,17.45-9.9,0-9.08-6.63-9.08-10-9.08H32.75Zm0,32.56h8.16c6.54,0,10.62-3.06,10.62-10.71,0-3.58-.92-7.76-4.8-9.39-2.35-.92-8.16-.92-14-.92Z"/>
			<path class="cls-2" style="fill:#fff;" d="M109.71,16.72h16.74V77.66h33v14H109.71Z"/>
			<path class="cls-2" style="fill:#fff;" d="M167.48,16.72h18.17c18.27,0,24.7,3.47,29,9.7,3.27,4.8,4.49,10,4.49,26.85L219,66c0,8.48-2,17.46-10.31,21.64-5.41,2.76-10,3.27-16,3.78-2.15.2-12.86.2-25.21.2Zm16.74,61.55h4.69c6.64,0,13.37-1.22,13.37-15.61,0-2.56.21-6.64.21-9.19,0-9-.21-15.21-2.76-18.88C196.57,30,193,30,184.22,30Z"/>
			<path class="cls-2" style="fill:#fff;" d="M231.88,16.72h17.05V66.13c0,4.49,0,13.77,10.1,13.77,3.16,0,10.51,0,10.51-13.67V16.72h16.64V66.33c0,4.49-.1,15.31-7.76,21.54-5.2,4.18-11.63,5.71-18.47,5.71-7.86,0-15.92-1.94-20.52-6.22-7.24-6.84-7.55-15.42-7.55-22.15Z"/>
			<path class="cls-2" style="fill:#fff;" d="M300.57,16.72h15.72l19.29,35c.81,1.54,1.84,3.58,2.55,5.11.31.61,1.33,3.37,1.63,3.88h.51l-.4-7.56c-.31-5.1-.31-5.71-.31-8.57V16.72h15.11V91.64H341.19l-19.9-36.33c-1.63-3-1.74-3.27-5.61-12.35h-.52c.11,2.14.52,11.63.52,13.57V91.64H300.57Z"/>
			<path class="cls-2" style="fill:#fff;" d="M366.71,44.39c0-6.64,0-16.13,7.75-23.28,5.72-5.2,12.46-5.92,19.7-5.92,14.19,0,24.3,8.68,24.3,23.17H402.12c-.3-6.63-3.67-9.69-9.28-9.69-8.58,0-9.19,7.35-9.19,11.73V64c0,9.8,1.84,15.82,9.9,15.82,8.57,0,8.57-7,8.57-9.8V64.9h-8.77V52.45h25.11v40H411.1L409,87.25h-.71c-2.15,2.56-5.51,6.43-17.05,6.43-7.55,0-14.49-2.14-19.39-8.26-4.08-5.21-5.1-11.43-5.1-20.72Z"/>
			<path class="cls-2" style="fill:#fff;" d="M465.71,36.83c-2.35-4.49-7.15-8.37-13-8.37-8.58,0-8.78,6.43-8.78,7.25,0,5.31,4.9,7.45,9.49,9.08L463,48.26c4.49,1.64,9.8,4.7,12.76,8.78a22.75,22.75,0,0,1,4.19,13.17c0,3.37,0,13.37-10.62,19.8a31,31,0,0,1-14.39,3.78c-13.17,0-20.92-3.17-27.66-15.21L440,70.11c2.75,6.32,7.75,10.2,14.19,10.2,3.57,0,10-1.63,10-8.47,0-5.61-3.06-6.84-14.29-11.23s-21.13-9.39-21.13-24.19c0-12.35,9-21.23,24.4-21.23,11,0,18.78,4.49,24.9,13.48Z"/>
			<path class="cls-2" style="fill:#fff;" d="M16.72,150.3c0-17.14,9.19-26.84,26.64-26.84,4.49,0,11.23.92,16.44,5,6.73,5.31,7.55,14.5,7.75,20.52H51.12c-.1-3.68-.31-11.84-8.47-11.84a9.68,9.68,0,0,0-6.23,2.34c-2.65,2.45-2.75,6.13-2.75,8.17v28.48c0,4.08,0,11.94,9.08,11.94,6.74,0,8.78-5.51,8.78-13.58H68.06a47.19,47.19,0,0,1-.71,9.19,20.78,20.78,0,0,1-7.86,13.37c-5.31,4.29-13.06,5-16.33,5-8.68,0-14.7-2-19.39-6.63-3.06-3-7-7.25-7-22.56Z"/>
			<path class="cls-2" style="fill:#fff;" d="M112.89,125.09,134.53,200h-16l-3.78-14.9h-23L87.89,200h-16L93,125.09Zm-9.69,13.37h-.41l-8.17,33.89h16.84Z"/>
			<path class="cls-2" style="fill:#fff;" d="M142.08,125.09h22L173,156.33c.92,3.36,1.33,4.49,2.14,7.86.41,1.53,1.94,8.06,2.25,9.39h.51A177.39,177.39,0,0,1,182,156l8.78-30.93h22.15V200H198.53V159.69c0-5.3.4-14.18.71-21.33h-.41L183.32,200H172l-15.93-61.65h-.51c.11,3.47.72,18.68.72,21.85V200H142.08Z"/>
			<path class="cls-2" style="fill:#fff;" d="M227.31,125.09H252c11,0,16.94,2.35,20.92,5.92,4.69,4.19,6.84,10.21,6.84,17.66,0,11.64-6.43,17.15-9.8,19.19-5.41,3.27-11.33,3.57-17.15,3.78l-9,.3V200H227.31Zm16.53,34.3c7.86,0,10.82,0,12.76-.82,1.33-.51,6-2.75,6-10.41,0-7.25-2.75-8.78-5-9.7-2.65-1-3.88-1-13.78-1Z"/>
			<path class="cls-2" style="fill:#fff;" d="M290.28,125.09h17v49.4c0,4.5,0,13.78,10.11,13.78,3.16,0,10.51,0,10.51-13.67V125.09h16.64V174.7c0,4.49-.1,15.31-7.76,21.54-5.2,4.18-11.63,5.71-18.47,5.71-7.86,0-15.92-1.94-20.52-6.23-7.24-6.83-7.55-15.41-7.55-22.14Z"/>
			<path class="cls-2" style="fill:#fff;" d="M392.55,145.2c-2.35-4.49-7.15-8.37-13-8.37-8.58,0-8.78,6.43-8.78,7.25,0,5.31,4.9,7.45,9.49,9.08l9.49,3.47c4.5,1.64,9.8,4.7,12.76,8.78a22.69,22.69,0,0,1,4.19,13.17c0,3.37,0,13.37-10.62,19.8a31,31,0,0,1-14.39,3.78c-13.17,0-20.92-3.17-27.66-15.21l12.76-8.48c2.75,6.33,7.76,10.21,14.19,10.21,3.57,0,10-1.63,10-8.47,0-5.61-3.06-6.84-14.29-11.23s-21.13-9.39-21.13-24.19c0-12.35,9-21.23,24.4-21.23,11,0,18.78,4.49,24.9,13.48Z"/>
			<path class="cls-2" style="fill:#fff;" d="M78.58,16.68H95.32V91.6H78.58Z"/>
		</g>
	</g>
</svg>