<svg
	xmlns="http://www.w3.org/2000/svg" viewBox="0 0 494.78 216.74">
	<g id="Ebene_2" data-name="Ebene 2">
		<g id="Schriftzug">
			<path class="cls-1" style="fill:#fff;" d="M0,0V216.74H421.63V108.37h73.15V0ZM300.57,16.72h15.72l19.29,35c.81,1.54,1.84,3.58,2.55,5.11.31.61,1.33,3.37,1.63,3.88h.51l-.4-7.56c-.31-5.1-.31-5.71-.31-8.57V16.72h15.11V91.64H341.19l-19.9-36.33c-1.63-3-1.74-3.27-5.61-12.35h-.52c.11,2.14.52,11.63.52,13.57V91.64H300.57Zm-190.86,0h16.74V77.66h33v14H109.71Zm-31.13,0H95.32V91.6H78.58Zm-11.23,167a20.78,20.78,0,0,1-7.86,13.37c-5.31,4.29-13.06,5-16.33,5-8.68,0-14.7-2-19.39-6.63-3.06-3-7-7.25-7-22.56V150.3c0-17.14,9.19-26.84,26.64-26.84,4.5,0,11.23.92,16.44,5,6.73,5.31,7.55,14.49,7.75,20.52H51.12c-.1-3.68-.3-11.84-8.47-11.84a9.68,9.68,0,0,0-6.23,2.34c-2.65,2.45-2.75,6.13-2.75,8.17v28.48c0,4.08,0,11.94,9.08,11.94,6.74,0,8.78-5.51,8.78-13.58H68.06A47.19,47.19,0,0,1,67.35,183.68Zm-5.1-98c-5.41,5.51-11.84,5.92-21.34,5.92H16.72V16.72H41.43c6.43,0,12.65.41,16.94,3.07,5.51,3.36,8.06,9.69,8.06,15.92,0,9.08-4.49,14.9-10.31,16.23v.51c5,.71,11.95,6.12,11.95,17.15C68.07,75.11,67.25,80.72,62.25,85.72ZM118.51,200l-3.78-14.9h-23L87.89,200h-16L93,125.09h19.9L134.53,200Zm94.41,0H198.53V159.69c0-5.3.4-14.18.71-21.33h-.41L183.32,200H172l-15.92-61.65h-.52c.11,3.47.72,18.68.72,21.84V200H142.08V125.09h22L173,156.33c.92,3.36,1.33,4.49,2.14,7.86.41,1.53,1.94,8.06,2.25,9.39h.51A177.39,177.39,0,0,1,182,156l8.78-30.93h22.15ZM219,66c0,8.48-2,17.46-10.31,21.64-5.41,2.76-10,3.27-16,3.78-2.15.2-12.86.2-25.21.2V16.72h18.17c18.27,0,24.7,3.47,29,9.7,3.27,4.8,4.49,10,4.49,26.85Zm51,101.84c-5.41,3.27-11.33,3.57-17.15,3.78l-9,.3V200H227.31V125.09H252c11,0,16.94,2.35,20.92,5.92,4.69,4.19,6.84,10.21,6.84,17.66C279.77,160.31,273.34,165.82,270,167.86ZM286.18,66.33c0,4.49-.1,15.31-7.76,21.54-5.2,4.18-11.63,5.71-18.47,5.71-7.86,0-15.92-1.94-20.52-6.22-7.24-6.84-7.55-15.42-7.55-22.15V16.72h17.05V66.13c0,4.49,0,13.77,10.1,13.77,3.16,0,10.51,0,10.51-13.67V16.72h16.64Zm58.4,108.37c0,4.49-.1,15.31-7.76,21.54-5.2,4.18-11.63,5.71-18.47,5.71-7.86,0-15.92-1.94-20.52-6.23-7.24-6.83-7.55-15.41-7.55-22.14V125.09h17v49.4c0,4.5,0,13.78,10.11,13.78,3.16,0,10.51,0,10.51-13.67V125.09h16.64Zm51.54,23.68a31,31,0,0,1-14.39,3.78c-13.17,0-20.92-3.17-27.66-15.21l12.76-8.48c2.75,6.33,7.76,10.21,14.19,10.21,3.57,0,10-1.63,10-8.47,0-5.61-3.06-6.84-14.29-11.23s-21.13-9.39-21.13-24.19c0-12.35,9-21.23,24.4-21.23,11,0,18.78,4.49,24.9,13.48l-12.35,8.16c-2.35-4.49-7.15-8.37-13-8.37-8.58,0-8.78,6.43-8.78,7.25,0,5.31,4.9,7.45,9.49,9.08l9.49,3.47c4.5,1.64,9.8,4.7,12.76,8.78a22.69,22.69,0,0,1,4.19,13.17C406.74,182,406.74,192,396.12,198.38ZM393.55,79.8c8.57,0,8.57-7,8.57-9.8V64.9h-8.77V52.45h25.11v40h-7.35L409,87.25h-.71c-2.15,2.56-5.51,6.43-17.05,6.43-7.55,0-14.49-2.14-19.39-8.26-4.08-5.21-5.1-11.43-5.1-20.72V44.39c0-6.64,0-16.13,7.75-23.28,5.72-5.2,12.46-5.92,19.7-5.92,14.19,0,24.3,8.68,24.3,23.17H402.12c-.3-6.63-3.67-9.69-9.28-9.69-8.58,0-9.19,7.35-9.19,11.73V64C383.65,73.78,385.49,79.8,393.55,79.8ZM469.28,90a31,31,0,0,1-14.39,3.78c-13.17,0-20.92-3.17-27.66-15.21L440,70.11c2.75,6.32,7.75,10.2,14.19,10.2,3.57,0,10-1.63,10-8.47,0-5.61-3.06-6.84-14.29-11.23s-21.13-9.39-21.13-24.19c0-12.35,9-21.23,24.4-21.23,11,0,18.78,4.49,24.9,13.48l-12.35,8.16c-2.35-4.49-7.14-8.37-13-8.37-8.58,0-8.78,6.43-8.78,7.25,0,5.31,4.9,7.45,9.49,9.08L463,48.26c4.49,1.64,9.8,4.7,12.76,8.78a22.75,22.75,0,0,1,4.19,13.17C479.9,73.58,479.9,83.58,469.28,90Z"/>
			<path class="cls-1" style="fill:#fff;" d="M46.73,59.7c-2.35-.92-8.16-.92-14-.92v21h8.16c6.54,0,10.62-3.06,10.62-10.71C51.53,65.51,50.61,61.33,46.73,59.7Z"/>
			<path class="cls-1" style="fill:#fff;" d="M184.22,30V78.27h4.69c6.64,0,13.37-1.22,13.37-15.61,0-2.56.21-6.64.21-9.19,0-9-.21-15.21-2.76-18.88C196.57,30,193,30,184.22,30Z"/>
			<path class="cls-1" style="fill:#fff;" d="M50.2,37.34c0-9.08-6.63-9.08-10-9.08H32.75v19C45.92,47.24,50.2,46.83,50.2,37.34Z"/>
			<path class="cls-1" style="fill:#fff;" d="M257.62,138.46c-2.65-1-3.88-1-13.78-1v21.95c7.86,0,10.82,0,12.76-.82,1.33-.51,6-2.75,6-10.41C262.62,140.91,259.87,139.38,257.62,138.46Z"/>
			<polygon class="cls-1" style="fill:#fff;" points="102.79 138.46 94.62 172.35 111.46 172.35 103.2 138.46 102.79 138.46"/>
		</g>
	</g>
</svg>